<?xml version="1.0" encoding="utf-8"?><!-- Uploaded to: SVG Repo, www.svgrepo.com, Generator: SVG Repo Mixer Tools -->
<svg width="800px" height="800px" viewBox="0 0 48 48" xmlns="http://www.w3.org/2000/svg"><path d="M36.8,47.6L24,38,11.2,47.6A2,2,0,0,1,8,46V3a2,2,0,0,1,2-2H38a2,2,0,0,1,2,2V46A2,2,0,0,1,36.8,47.6Z" fill="#93d8b6"/><path d="M29.05,22H18.95a2,2,0,0,1,0-4H29.05A2,2,0,0,1,29.05,22Z" fill="#4dbe86"/><path d="M26,14.95V25.05a2,2,0,0,1-4,0V14.95A2,2,0,0,1,26,14.95Z" fill="#4dbe86"/></svg>
