<svg width="32" height="32" viewBox="0 0 32 32" xmlns="http://www.w3.org/2000/svg">
<path d="M20.2422 21.6574C20.6327 22.0479 21.2659 22.0479 21.6564 21.6574C22.0469 21.2669 22.0469 20.6337 21.6564 20.2432L17.4138 16.0006L21.6565 11.7579C22.047 11.3674 22.047 10.7342 21.6565 10.3437C21.266 9.95317 20.6328 9.95317 20.2423 10.3437L15.9996 14.5864L11.7569 10.3437C11.3664 9.95315 10.7332 9.95315 10.3427 10.3437C9.95217 10.7342 9.95217 11.3674 10.3427 11.7579L14.5854 16.0006L10.3428 20.2432C9.95226 20.6337 9.95227 21.2669 10.3428 21.6574C10.7333 22.0479 11.3665 22.0479 11.757 21.6574L15.9996 17.4148L20.2422 21.6574Z" fill="white"/>
</svg>
