<svg width="32" height="32" viewBox="0 0 32 32" fill="none" xmlns="http://www.w3.org/2000/svg">
<path d="M13 14C13 13.4477 13.4477 13 14 13H20C20.5523 13 21 13.4477 21 14C21 14.5523 20.5523 15 20 15H14C13.4477 15 13 14.5523 13 14Z" fill="#2C3A42"/>
<path d="M14 17C13.4477 17 13 17.4477 13 18C13 18.5523 13.4477 19 14 19H15C15.5523 19 16 18.5523 16 18C16 17.4477 15.5523 17 15 17H14Z" fill="#2C3A42"/>
<path fill-rule="evenodd" clip-rule="evenodd" d="M6.81821 16C6.81821 10.9127 11.4599 7 16.9091 7C22.3583 7 27 10.9127 27 16C27 21.0873 22.3583 25 16.9091 25H6.00003C5.59352 25 5.22747 24.7539 5.07402 24.3775C4.92057 24.0011 5.01026 23.5692 5.30091 23.285L8.15745 20.4919C7.29254 19.1561 6.82412 17.6013 6.81822 16.0037L6.81821 16ZM8.81821 15.9982C8.82396 17.4394 9.3265 18.8395 10.249 19.972C10.5757 20.373 10.5426 20.957 10.1728 21.3186L8.45313 23H16.9091C21.5017 23 25 19.7501 25 16C25 12.2499 21.5017 9 16.9091 9C12.3173 9 8.81934 12.2489 8.81821 15.9982Z" fill="#2C3A42"/>
</svg>
