<svg width="32" height="32" viewBox="0 0 32 32" fill="none" xmlns="http://www.w3.org/2000/svg">
<g clip-path="url(#clip0_2910_38459)">
<path d="M23.0056 8.99425C22.7714 8.76105 22.4934 8.57657 22.1875 8.45146C21.8816 8.32634 21.5539 8.26308 21.2234 8.26532C20.8929 8.26755 20.5662 8.33525 20.262 8.46449C19.9578 8.59374 19.6823 8.78197 19.4513 9.01831L9.4825 18.9871L8.26562 23.7343L13.0128 22.5167L22.9816 12.5479C23.218 12.317 23.4063 12.0416 23.5355 11.7374C23.6648 11.4333 23.7326 11.1066 23.7348 10.7761C23.737 10.4457 23.6737 10.118 23.5486 9.81219C23.4234 9.50634 23.2389 9.22834 23.0056 8.99425V8.99425Z" stroke="black" stroke-width="2" stroke-linecap="round" stroke-linejoin="round"/>
<path d="M19.1665 9.30383L22.6961 12.8335" stroke="black" stroke-width="2" stroke-linecap="round" stroke-linejoin="round"/>
<path d="M9.48315 18.9865L13.0162 22.5133" stroke="black" stroke-width="2" stroke-linecap="round" stroke-linejoin="round"/>
</g>
<defs>
<clipPath id="clip0_2910_38459">
<rect width="18" height="18" fill="white" transform="translate(7 7)"/>
</clipPath>
</defs>
</svg>
