<svg width="32" height="32" viewBox="0 0 32 32" fill="none" xmlns="http://www.w3.org/2000/svg">
  <path fill-rule="evenodd" clip-rule="evenodd"
    d="M10.9578 8.26361C11.378 8.08957 11.8283 8 12.2831 8C12.7378 8 13.1882 8.08957 13.6083 8.26361C14.0285 8.43764 14.4102 8.69272 14.7318 9.01429C15.0533 9.33586 15.3084 9.71762 15.4825 10.1378C15.5452 10.2893 15.597 10.4448 15.6376 10.603H25.4781C26.0304 10.603 26.4781 11.0507 26.4781 11.603C26.4781 12.1553 26.0304 12.603 25.4781 12.603H15.5531C15.5313 12.6653 15.5078 12.7271 15.4825 12.7882C15.3084 13.2084 15.0533 13.5901 14.7318 13.9117C14.4102 14.2333 14.0285 14.4884 13.6083 14.6624C13.1882 14.8364 12.7378 14.926 12.2831 14.926C11.8283 14.926 11.378 14.8364 10.9578 14.6624C10.5377 14.4884 10.1559 14.2333 9.83436 13.9117C9.51279 13.5901 9.25771 13.2084 9.08367 12.7882C9.05835 12.7271 9.03482 12.6653 9.01309 12.603H6C5.44772 12.603 5 12.1553 5 11.603C5 11.0507 5.44772 10.603 6 10.603H8.92855C8.96911 10.4448 9.0209 10.2893 9.08367 10.1378C9.25771 9.71762 9.51279 9.33586 9.83436 9.01429C10.1559 8.69272 10.5377 8.43764 10.9578 8.26361ZM12.2831 10C12.0909 10 11.9007 10.0378 11.7232 10.1114C11.5457 10.1849 11.3844 10.2927 11.2486 10.4285C11.1127 10.5644 11.005 10.7256 10.9314 10.9031C10.8579 11.0806 10.8201 11.2709 10.8201 11.463C10.8201 11.6551 10.8579 11.8454 10.9314 12.0229C11.005 12.2004 11.1127 12.3616 11.2486 12.4975C11.3844 12.6333 11.5457 12.7411 11.7232 12.8146C11.9007 12.8882 12.0909 12.926 12.2831 12.926C12.4752 12.926 12.6654 12.8882 12.8429 12.8146C13.0204 12.7411 13.1817 12.6333 13.3176 12.4975C13.4534 12.3616 13.5612 12.2004 13.6347 12.0229C13.7082 11.8454 13.7461 11.6551 13.7461 11.463C13.7461 11.2709 13.7082 11.0806 13.6347 10.9031C13.5612 10.7256 13.4534 10.5644 13.3176 10.4285C13.1817 10.2927 13.0204 10.1849 12.8429 10.1114C12.6654 10.0378 12.4752 10 12.2831 10Z"
    fill="white" />
  <path fill-rule="evenodd" clip-rule="evenodd"
    d="M5.00098 21.657C5.00098 21.1047 5.44869 20.657 6.00098 20.657H15.882C16.0457 20.1156 16.341 19.6175 16.7482 19.2103C17.3976 18.5608 18.2784 18.196 19.1969 18.196C20.1153 18.196 20.9962 18.5608 21.6456 19.2103C22.0528 19.6175 22.3481 20.1156 22.5118 20.657H25.4779C26.0302 20.657 26.4779 21.1047 26.4779 21.657C26.4779 22.2093 26.0302 22.657 25.4779 22.657H22.513C22.3496 23.1999 22.0538 23.6995 21.6456 24.1077C20.9962 24.7571 20.1153 25.122 19.1969 25.122C18.2784 25.122 17.3976 24.7571 16.7482 24.1077C16.34 23.6995 16.0442 23.1999 15.8808 22.657H6.00098C5.44869 22.657 5.00098 22.2093 5.00098 21.657ZM17.7339 21.6685C17.7364 22.0531 17.8903 22.4214 18.1624 22.6935C18.4368 22.9678 18.8089 23.122 19.1969 23.122C19.5849 23.122 19.957 22.9678 20.2314 22.6935C20.5057 22.4191 20.6599 22.047 20.6599 21.659C20.6599 21.271 20.5057 20.8989 20.2314 20.6245C19.957 20.3501 19.5849 20.196 19.1969 20.196C18.8089 20.196 18.4368 20.3501 18.1624 20.6245C17.8908 20.8961 17.737 21.2636 17.7339 21.6474C17.734 21.6506 17.734 21.6538 17.734 21.657C17.734 21.6608 17.734 21.6647 17.7339 21.6685Z"
    fill="white" />
</svg>
