<svg id="svg" version="1.1" xmlns="http://www.w3.org/2000/svg" xmlns:xlink="http://www.w3.org/1999/xlink" width="400" height="386.50306748466255" viewBox="0, 0, 400,386.50306748466255"><g id="svgg"><path id="path0" d="M304.545 133.782 C 304.159 134.027,304.080 156.312,304.158 243.930 L 304.255 353.772 338.104 353.772 L 371.954 353.772 372.051 244.141 C 372.123 163.421,372.034 134.372,371.713 133.986 C 371.222 133.394,305.471 133.193,304.545 133.782 M121.566 160.861 C 121.180 161.106,121.101 180.684,121.179 257.470 L 121.277 353.772 155.126 353.772 L 188.975 353.772 189.072 257.470 C 189.150 180.684,189.072 161.106,188.685 160.861 C 188.419 160.692,173.317 160.553,155.126 160.553 C 136.934 160.553,121.832 160.692,121.566 160.861 M212.227 182.043 C 211.920 182.843,211.920 352.553,212.227 353.353 C 212.536 354.159,279.197 354.304,280.000 353.501 C 280.676 352.825,280.676 182.571,280.000 181.896 C 279.197 181.092,212.536 181.238,212.227 182.043 M29.271 216.119 C 28.635 216.755,28.987 353.485,29.625 353.730 C 29.962 353.860,45.198 353.965,63.484 353.965 L 96.731 353.965 97.108 352.973 C 97.645 351.560,97.623 217.613,97.085 216.609 C 96.679 215.850,30.022 215.368,29.271 216.119 " stroke="none" fill="#11d211" fill-rule="evenodd"></path><path id="path1" d="M0.000 193.424 L 0.000 386.847 200.000 386.847 L 400.000 386.847 400.000 193.424 L 400.000 0.000 200.000 0.000 L 0.000 0.000 0.000 193.424 M344.540 36.927 C 345.575 37.237,347.264 37.598,348.294 37.729 C 349.804 37.922,350.285 38.176,350.781 39.041 C 351.212 39.792,351.867 40.217,352.971 40.462 C 354.027 40.697,354.671 41.099,354.927 41.683 C 355.137 42.162,355.529 42.553,355.798 42.553 C 356.066 42.553,356.286 42.724,356.286 42.932 C 356.286 43.141,356.975 43.662,357.816 44.092 C 358.945 44.668,359.747 45.556,360.880 47.484 C 361.725 48.921,362.753 50.301,363.166 50.550 C 363.970 51.036,364.797 53.689,364.797 55.784 C 364.797 56.591,365.050 57.225,365.479 57.493 C 367.569 58.799,367.453 71.391,365.334 73.150 C 365.039 73.395,364.797 74.237,364.797 75.022 C 364.797 75.806,364.541 76.786,364.229 77.199 C 363.917 77.612,363.655 78.216,363.649 78.540 C 363.642 78.865,363.114 79.703,362.476 80.402 C 361.838 81.101,361.315 81.837,361.315 82.039 C 361.315 82.241,360.837 82.915,360.251 83.538 C 359.666 84.160,358.679 85.290,358.057 86.049 C 357.434 86.807,356.703 87.427,356.431 87.427 C 356.159 87.427,355.345 88.037,354.622 88.781 C 353.898 89.526,353.063 90.141,352.766 90.148 C 352.468 90.154,351.886 90.416,351.473 90.728 C 351.060 91.040,350.339 91.296,349.871 91.296 C 349.402 91.296,348.933 91.519,348.829 91.791 C 347.889 94.240,328.538 94.316,327.172 91.876 C 326.994 91.557,326.454 91.296,325.973 91.296 C 325.493 91.296,324.762 91.040,324.349 90.728 C 323.936 90.416,323.328 90.154,322.999 90.148 C 322.669 90.141,321.799 89.532,321.065 88.794 C 320.330 88.056,319.543 87.447,319.316 87.440 C 318.780 87.424,316.193 85.063,315.999 84.413 C 315.860 83.946,312.864 85.604,311.528 86.888 C 311.272 87.133,310.462 87.447,309.728 87.585 C 308.993 87.723,308.292 88.096,308.170 88.413 C 307.989 88.885,303.474 91.296,302.772 91.296 C 302.663 91.296,302.052 91.818,301.413 92.456 C 300.700 93.170,299.853 93.617,299.213 93.617 C 298.563 93.617,297.468 94.207,296.291 95.193 C 295.255 96.060,293.795 96.939,293.046 97.146 C 292.297 97.352,291.268 97.905,290.759 98.374 C 290.250 98.843,288.814 99.735,287.567 100.358 C 286.320 100.980,284.778 101.880,284.139 102.359 C 283.501 102.837,282.507 103.346,281.931 103.489 C 281.354 103.633,280.680 103.995,280.433 104.293 C 280.185 104.592,279.743 104.836,279.450 104.836 C 279.157 104.836,278.917 105.002,278.917 105.206 C 278.917 105.410,278.157 106.022,277.228 106.566 L 275.539 107.556 275.730 110.218 C 275.975 113.648,275.507 118.635,274.881 119.261 C 274.613 119.529,274.270 120.406,274.119 121.210 C 273.968 122.014,273.594 122.768,273.286 122.886 C 272.971 123.007,272.727 123.605,272.727 124.256 C 272.727 125.309,271.450 127.668,270.710 127.982 C 270.543 128.053,270.406 128.339,270.406 128.618 C 270.406 128.896,270.160 129.218,269.860 129.334 C 269.560 129.449,269.096 130.145,268.830 130.881 C 268.456 131.917,268.010 132.330,266.862 132.709 C 266.045 132.979,265.377 133.381,265.377 133.604 C 265.377 134.299,262.520 136.542,261.625 136.550 C 261.157 136.554,260.287 137.071,259.691 137.700 C 257.561 139.947,242.842 141.474,238.500 139.899 C 237.644 139.588,236.296 139.224,235.505 139.091 C 234.713 138.957,233.580 138.439,232.987 137.940 C 232.394 137.441,231.262 136.762,230.473 136.433 C 229.683 136.103,228.417 135.212,227.658 134.454 C 226.900 133.696,226.149 133.075,225.989 133.075 C 225.829 133.075,225.104 132.357,224.378 131.479 C 223.652 130.601,222.789 129.614,222.460 129.285 C 221.781 128.606,221.015 127.388,220.664 126.429 C 220.534 126.071,220.183 125.685,219.885 125.571 C 219.586 125.456,219.337 124.966,219.330 124.480 C 219.323 123.995,219.062 123.260,218.750 122.847 C 218.437 122.434,218.182 121.646,218.182 121.095 C 218.182 120.545,217.913 119.711,217.584 119.241 C 217.255 118.772,216.887 117.558,216.765 116.544 C 216.514 114.462,214.978 113.349,212.349 113.344 C 211.621 113.343,210.527 113.081,209.917 112.764 C 209.308 112.446,208.328 112.186,207.740 112.186 C 207.152 112.186,206.454 111.925,206.190 111.605 C 205.925 111.286,205.201 111.025,204.582 111.025 C 203.963 111.025,202.832 110.764,202.068 110.445 C 201.304 110.126,200.303 109.865,199.843 109.865 C 198.973 109.865,195.247 108.676,193.230 107.756 C 192.592 107.465,190.436 107.045,188.440 106.824 C 185.691 106.519,184.605 106.229,183.966 105.628 C 182.784 104.518,181.279 104.594,180.733 105.792 C 180.493 106.318,179.875 106.854,179.359 106.984 C 178.749 107.137,178.344 107.580,178.200 108.252 C 177.948 109.427,174.354 113.346,173.527 113.346 C 173.227 113.346,172.388 114.039,171.664 114.885 C 170.639 116.082,169.903 116.526,168.346 116.886 C 167.245 117.140,166.344 117.487,166.344 117.658 C 166.344 120.290,146.034 120.631,144.211 118.029 C 143.938 117.638,143.136 117.192,142.430 117.037 C 140.649 116.646,139.354 115.921,137.770 114.430 C 135.580 112.367,131.814 112.639,129.496 115.027 C 128.241 116.320,127.465 116.779,126.209 116.972 C 124.904 117.172,124.565 117.384,124.565 118.001 C 124.565 118.447,124.193 118.927,123.694 119.126 C 123.216 119.318,121.980 119.793,120.948 120.182 C 119.755 120.632,118.948 121.210,118.730 121.770 C 118.361 122.716,118.132 122.837,116.054 123.181 C 115.129 123.335,114.455 123.772,113.926 124.562 C 113.158 125.711,110.915 126.886,109.491 126.886 C 109.068 126.886,108.528 127.332,108.242 127.919 C 107.937 128.543,107.202 129.125,106.383 129.389 C 103.599 130.288,102.682 130.791,102.313 131.623 C 102.045 132.228,101.423 132.577,100.193 132.814 C 99.236 132.998,98.178 133.393,97.842 133.692 C 97.506 133.991,97.071 134.239,96.875 134.243 C 96.679 134.246,96.086 134.705,95.558 135.261 C 95.029 135.818,94.091 136.450,93.472 136.666 L 92.347 137.058 92.574 141.159 C 92.781 144.907,92.486 150.007,91.851 153.662 C 91.690 154.590,91.342 155.182,90.869 155.332 C 90.467 155.460,90.028 156.031,89.895 156.602 C 89.061 160.182,88.259 161.825,87.110 162.308 C 86.261 162.665,85.903 163.103,85.812 163.896 C 85.714 164.754,85.332 165.155,84.043 165.754 C 82.848 166.309,82.398 166.747,82.398 167.357 C 82.398 168.217,81.731 168.665,80.450 168.665 C 79.662 168.665,77.653 169.921,76.353 171.226 C 75.727 171.855,74.829 172.113,72.517 172.330 C 70.798 172.491,69.266 172.845,68.958 173.153 C 68.401 173.710,67.323 173.781,60.735 173.697 C 58.470 173.667,56.645 173.444,55.979 173.113 C 55.385 172.818,54.079 172.457,53.078 172.311 C 51.051 172.017,49.098 171.158,48.627 170.354 C 48.457 170.063,47.972 169.826,47.551 169.826 C 47.129 169.826,46.684 169.565,46.562 169.246 C 46.439 168.926,46.091 168.665,45.788 168.665 C 45.485 168.665,45.137 168.404,45.014 168.085 C 44.892 167.766,44.571 167.505,44.302 167.505 C 43.558 167.505,38.528 161.781,37.724 160.021 C 37.516 159.562,37.124 158.958,36.854 158.676 C 36.584 158.395,36.364 157.817,36.364 157.392 C 36.364 156.966,36.103 156.357,35.783 156.038 C 35.464 155.718,35.203 154.882,35.203 154.178 C 35.203 153.475,34.942 152.683,34.623 152.418 C 33.769 151.709,33.769 139.594,34.623 138.740 C 34.950 138.413,35.203 137.468,35.203 136.573 C 35.203 135.519,35.398 134.911,35.783 134.763 C 36.103 134.640,36.364 134.145,36.364 133.662 C 36.364 133.179,36.625 132.567,36.944 132.302 C 37.263 132.037,37.524 131.607,37.524 131.346 C 37.524 130.929,37.891 130.397,39.451 128.546 C 39.668 128.289,39.845 127.925,39.845 127.737 C 39.845 127.185,44.616 122.765,45.522 122.477 C 45.977 122.333,46.448 121.960,46.567 121.649 C 46.687 121.338,47.059 121.083,47.395 121.083 C 47.731 121.083,48.389 120.647,48.858 120.115 C 49.512 119.370,50.279 119.070,52.165 118.819 C 53.516 118.640,54.757 118.272,54.924 118.003 C 56.344 115.703,71.567 115.540,71.567 117.824 C 71.567 118.411,72.075 118.555,75.813 119.027 C 77.806 119.278,78.402 119.512,78.729 120.172 C 79.409 121.542,80.133 122.244,80.867 122.244 C 81.647 122.244,84.065 121.060,84.277 120.575 C 84.352 120.401,84.787 120.094,85.244 119.892 C 85.700 119.690,86.596 119.181,87.234 118.762 C 87.872 118.343,88.743 117.816,89.168 117.591 C 90.173 117.059,91.098 116.489,93.230 115.087 C 95.927 113.314,96.469 112.990,97.169 112.734 C 97.526 112.603,97.912 112.252,98.027 111.954 C 98.141 111.656,98.520 111.412,98.868 111.412 C 99.217 111.412,100.136 110.913,100.911 110.303 C 101.687 109.693,102.713 109.072,103.191 108.923 C 103.670 108.774,104.062 108.507,104.062 108.329 C 104.062 108.151,104.541 107.817,105.126 107.587 C 106.305 107.123,107.430 106.441,108.232 105.706 C 108.522 105.440,108.922 105.222,109.122 105.222 C 109.321 105.222,110.205 104.700,111.087 104.062 C 111.968 103.424,112.924 102.901,113.211 102.901 C 113.498 102.901,113.733 102.723,113.733 102.505 C 113.733 102.287,114.159 101.947,114.679 101.749 C 115.200 101.551,116.358 100.859,117.252 100.211 C 118.146 99.563,119.113 99.033,119.400 99.033 C 119.688 99.033,119.923 98.854,119.923 98.636 C 119.923 98.418,120.381 98.066,120.940 97.853 C 121.500 97.640,122.497 97.079,123.157 96.605 C 123.816 96.132,124.707 95.566,125.137 95.348 C 125.841 94.990,125.938 94.472,126.112 90.125 C 126.224 87.332,126.509 84.944,126.789 84.455 C 127.055 83.990,127.280 83.033,127.290 82.327 C 127.299 81.622,127.734 80.348,128.257 79.497 C 128.780 78.646,129.399 77.471,129.632 76.886 C 129.865 76.301,130.213 75.822,130.405 75.822 C 130.597 75.822,130.754 75.562,130.754 75.245 C 130.754 74.927,131.296 74.187,131.958 73.601 C 132.620 73.014,133.309 72.151,133.488 71.684 C 133.668 71.216,134.301 70.528,134.896 70.154 C 135.490 69.780,136.588 68.944,137.335 68.296 C 138.082 67.648,139.387 66.770,140.236 66.344 C 141.085 65.919,141.837 65.442,141.907 65.285 C 142.143 64.756,145.543 63.443,146.678 63.443 C 147.297 63.443,148.221 63.169,148.732 62.834 C 149.934 62.046,161.340 62.157,161.606 62.959 C 161.696 63.230,162.397 63.443,163.200 63.443 C 163.988 63.443,165.362 63.835,166.253 64.313 C 167.143 64.792,168.786 65.675,169.903 66.275 C 171.020 66.876,172.374 67.853,172.911 68.447 C 173.448 69.042,174.461 69.821,175.162 70.179 C 175.863 70.537,176.646 71.301,176.903 71.875 C 177.159 72.450,177.848 73.394,178.433 73.971 C 179.018 74.549,179.501 75.159,179.506 75.325 C 179.510 75.492,179.855 76.064,180.271 76.596 C 180.687 77.128,181.031 77.933,181.036 78.386 C 181.041 78.839,181.287 79.410,181.584 79.657 C 181.881 79.903,182.216 80.664,182.328 81.348 C 183.062 85.802,184.564 87.505,188.274 88.086 C 189.085 88.213,190.092 88.552,190.512 88.839 C 190.931 89.127,191.889 89.367,192.639 89.374 C 193.390 89.381,194.342 89.642,194.755 89.954 C 195.168 90.267,196.048 90.522,196.712 90.522 C 197.375 90.522,198.256 90.778,198.669 91.090 C 199.082 91.403,200.060 91.664,200.843 91.670 C 201.625 91.677,202.527 91.944,202.846 92.263 C 203.165 92.582,204.005 92.844,204.711 92.846 C 205.418 92.847,206.495 93.108,207.104 93.426 C 207.714 93.744,208.671 94.010,209.232 94.017 C 209.793 94.024,210.948 94.366,211.799 94.778 C 212.650 95.189,213.798 95.531,214.351 95.538 C 214.903 95.545,215.860 95.793,216.478 96.088 C 218.189 96.906,221.663 97.253,221.663 96.607 C 221.663 96.182,227.010 90.814,229.651 88.588 C 231.265 87.227,234.179 85.871,236.074 85.599 C 236.956 85.473,237.524 85.180,237.524 84.852 C 237.524 82.737,254.466 82.640,255.136 84.752 C 255.282 85.211,255.725 85.493,256.299 85.493 C 256.810 85.493,257.799 85.734,258.498 86.029 C 259.196 86.324,260.290 86.719,260.928 86.908 C 261.588 87.104,262.299 87.693,262.579 88.278 C 262.889 88.926,263.508 89.399,264.260 89.565 C 265.053 89.739,265.712 90.271,266.238 91.163 C 266.803 92.120,267.204 92.426,267.653 92.241 C 267.997 92.098,268.583 91.894,268.956 91.787 C 269.328 91.680,269.632 91.456,269.632 91.289 C 269.632 90.939,272.196 89.362,272.765 89.362 C 273.150 89.362,275.172 88.025,276.129 87.137 C 276.416 86.871,276.987 86.654,277.397 86.654 C 277.807 86.654,278.143 86.491,278.143 86.293 C 278.143 86.095,278.535 85.810,279.014 85.661 C 279.492 85.512,280.518 84.891,281.294 84.281 C 282.069 83.671,282.961 83.172,283.277 83.172 C 283.593 83.172,284.068 82.911,284.333 82.592 C 284.598 82.273,284.952 82.012,285.120 82.012 C 285.288 82.012,286.351 81.402,287.482 80.658 C 288.612 79.913,289.759 79.304,290.030 79.304 C 290.301 79.304,290.522 79.147,290.522 78.955 C 290.522 78.763,291.001 78.417,291.586 78.187 C 292.990 77.634,294.125 76.903,294.507 76.306 C 294.677 76.040,295.147 75.822,295.551 75.822 C 295.956 75.822,296.426 75.600,296.596 75.329 C 296.766 75.057,297.732 74.405,298.743 73.879 C 299.753 73.353,300.580 72.808,300.580 72.669 C 300.580 72.530,301.059 72.224,301.644 71.990 C 302.229 71.756,303.230 71.215,303.868 70.787 C 304.507 70.360,305.334 69.905,305.706 69.776 C 306.078 69.648,306.383 69.384,306.383 69.191 C 306.383 68.998,306.797 68.682,307.302 68.490 C 308.165 68.162,308.238 67.887,308.496 63.954 C 308.660 61.456,308.992 59.422,309.318 58.911 C 309.619 58.440,309.873 57.744,309.884 57.364 C 309.935 55.557,312.021 50.471,312.863 50.102 C 313.363 49.882,313.733 49.378,313.733 48.918 C 313.733 48.477,314.225 47.604,314.826 46.979 C 315.427 46.353,316.021 45.564,316.145 45.225 C 316.269 44.887,316.973 44.323,317.709 43.974 C 318.446 43.624,319.506 42.738,320.066 42.005 C 321.060 40.700,321.324 40.552,323.501 40.067 C 324.086 39.937,324.565 39.592,324.565 39.300 C 324.565 38.714,327.180 37.534,328.538 37.507 C 329.012 37.498,330.271 37.248,331.335 36.953 C 333.996 36.214,342.104 36.198,344.540 36.927 M373.460 134.429 C 374.727 141.518,374.070 354.378,372.778 355.217 C 372.537 355.373,356.903 355.503,338.035 355.507 C 299.583 355.513,302.515 355.749,302.515 352.645 C 302.515 351.737,302.247 350.139,301.920 349.094 C 301.103 346.486,301.201 140.548,302.020 138.969 C 302.292 138.445,302.515 137.006,302.515 135.771 C 302.515 134.536,302.621 133.249,302.750 132.912 C 302.963 132.356,306.326 132.307,338.050 132.396 L 373.114 132.495 373.460 134.429 M190.612 160.445 C 191.177 162.466,190.974 354.248,190.406 354.816 C 189.903 355.320,122.853 355.826,120.863 355.341 C 119.538 355.018,118.273 334.737,118.822 322.631 C 118.885 321.248,118.922 318.897,118.905 317.408 C 118.825 310.486,118.809 304.209,118.821 282.979 C 118.828 270.426,118.827 258.240,118.817 255.899 C 118.799 251.233,118.805 234.778,118.828 228.046 C 118.836 225.706,118.815 215.696,118.782 205.803 C 118.748 195.909,118.735 187.292,118.752 186.654 C 118.769 186.015,118.830 181.925,118.888 177.563 C 118.946 173.201,119.199 168.501,119.450 167.118 C 119.701 165.735,119.911 163.428,119.915 161.992 L 119.923 159.381 155.118 159.381 L 190.314 159.381 190.612 160.445 M281.093 180.384 C 282.047 181.337,282.147 189.394,282.175 267.505 C 282.204 347.892,282.122 353.799,280.959 354.963 C 280.136 355.786,211.936 355.788,211.113 354.965 C 209.825 353.677,209.398 187.413,210.666 181.153 C 210.833 180.333,211.043 180.290,215.381 180.186 C 223.734 179.986,280.867 180.158,281.093 180.384 M98.006 214.700 C 99.315 216.088,99.420 221.393,99.394 284.552 C 99.367 349.493,99.258 354.343,97.797 355.160 C 96.983 355.616,28.440 355.455,27.982 354.997 C 27.572 354.587,27.554 215.257,27.964 214.848 C 29.017 213.794,97.016 213.651,98.006 214.700 " stroke="none" fill="#fbfbfa" fill-rule="evenodd"></path><path id="path2" d="M332.689 37.720 C 331.731 38.004,330.417 38.250,329.768 38.267 C 329.119 38.284,328.423 38.459,328.221 38.656 C 328.018 38.852,326.460 39.708,324.758 40.556 C 323.056 41.405,321.152 42.637,320.527 43.293 C 319.902 43.950,319.206 44.488,318.980 44.489 C 318.274 44.491,313.666 50.552,312.510 52.998 C 310.640 56.954,309.819 60.163,309.527 64.658 C 309.268 68.644,308.728 69.636,306.480 70.252 C 306.001 70.383,305.609 70.634,305.609 70.809 C 305.609 70.984,305.218 71.247,304.739 71.393 C 304.260 71.539,303.597 71.896,303.265 72.186 C 302.934 72.476,301.950 73.108,301.079 73.591 C 299.443 74.497,293.946 77.826,292.132 79.008 C 291.566 79.377,290.754 79.838,290.329 80.033 C 289.903 80.228,288.946 80.802,288.201 81.309 C 287.456 81.816,286.113 82.611,285.215 83.076 C 284.318 83.540,282.838 84.399,281.927 84.984 C 281.016 85.569,279.662 86.379,278.917 86.783 C 278.172 87.188,276.814 88.021,275.899 88.634 C 274.984 89.247,274.097 89.749,273.926 89.749 C 273.756 89.749,272.896 90.271,272.015 90.909 C 271.134 91.547,270.250 92.070,270.050 92.070 C 269.851 92.070,269.450 92.308,269.159 92.599 C 267.915 93.842,267.124 93.682,265.126 91.783 C 262.106 88.914,258.922 87.144,255.126 86.227 C 254.275 86.021,253.030 85.598,252.359 85.286 C 250.652 84.492,241.642 84.493,240.119 85.288 C 239.525 85.598,238.393 85.967,237.605 86.109 C 236.816 86.252,235.996 86.498,235.783 86.657 C 235.571 86.816,234.961 87.076,234.429 87.235 C 233.897 87.394,232.714 88.025,231.799 88.637 C 230.884 89.248,230.011 89.749,229.859 89.749 C 229.285 89.749,224.373 94.478,222.989 96.363 C 221.418 98.504,221.584 98.469,217.795 97.469 C 216.838 97.216,215.482 96.768,214.784 96.474 C 214.085 96.179,213.041 95.932,212.463 95.924 C 211.885 95.917,210.977 95.662,210.445 95.358 C 209.913 95.054,209.043 94.798,208.511 94.789 C 207.979 94.780,207.045 94.513,206.435 94.195 C 205.826 93.877,204.869 93.616,204.308 93.615 C 203.747 93.613,202.835 93.376,202.281 93.087 C 201.727 92.798,200.469 92.441,199.486 92.293 C 198.502 92.146,197.596 91.861,197.472 91.660 C 197.348 91.460,196.952 91.298,196.592 91.302 C 195.991 91.307,193.157 90.521,188.781 89.135 C 187.824 88.832,186.692 88.575,186.267 88.564 C 184.047 88.505,182.266 86.180,181.447 82.271 C 181.277 81.456,180.942 80.594,180.704 80.356 C 180.466 80.118,180.271 79.635,180.271 79.284 C 180.271 78.933,179.749 77.925,179.110 77.044 C 178.472 76.163,177.950 75.260,177.950 75.038 C 177.950 73.777,169.995 67.113,167.602 66.369 C 167.123 66.220,166.731 65.936,166.731 65.738 C 166.731 65.540,166.453 65.377,166.114 65.377 C 165.774 65.377,165.034 65.136,164.470 64.842 C 156.764 60.825,142.475 64.022,135.280 71.373 C 132.435 74.281,131.798 75.069,130.720 77.024 C 127.842 82.244,127.366 83.973,126.895 90.909 C 126.728 93.356,126.571 95.377,126.546 95.401 C 125.976 95.924,121.426 98.646,121.122 98.646 C 120.888 98.646,120.696 98.777,120.696 98.936 C 120.696 99.096,119.804 99.749,118.715 100.387 C 117.625 101.025,116.276 101.849,115.717 102.219 C 115.158 102.588,114.352 103.069,113.926 103.289 C 113.501 103.508,111.673 104.639,109.865 105.803 C 108.056 106.966,106.228 108.098,105.803 108.317 C 105.377 108.536,104.566 109.018,103.999 109.387 C 103.433 109.756,101.605 110.892,99.937 111.912 C 95.562 114.587,95.545 114.598,93.870 115.764 C 93.028 116.349,92.198 116.828,92.023 116.828 C 91.849 116.828,90.423 117.698,88.855 118.762 C 87.287 119.826,85.817 120.696,85.588 120.696 C 85.358 120.696,85.113 120.834,85.042 121.003 C 84.373 122.594,79.518 123.628,78.497 122.397 C 78.213 122.056,77.626 121.611,77.192 121.409 C 76.758 121.206,75.793 120.715,75.048 120.316 C 74.304 119.917,72.737 119.469,71.567 119.320 C 70.397 119.172,68.969 118.811,68.394 118.519 C 66.968 117.794,59.018 117.800,56.783 118.529 C 55.872 118.826,54.500 119.177,53.735 119.309 C 52.321 119.552,50.261 120.497,48.162 121.863 C 47.524 122.279,46.654 122.783,46.228 122.984 C 45.359 123.394,39.753 129.083,39.334 129.981 C 39.185 130.300,38.719 131.083,38.298 131.721 C 37.877 132.360,37.433 133.143,37.310 133.462 C 37.188 133.781,36.849 134.565,36.557 135.203 C 35.115 138.357,34.171 145.110,34.733 148.262 C 35.301 151.449,36.115 154.701,36.646 155.899 C 36.882 156.431,37.178 157.128,37.304 157.447 C 37.430 157.766,37.876 158.549,38.296 159.188 C 38.716 159.826,39.226 160.696,39.429 161.122 C 40.026 162.372,45.705 167.741,47.389 168.647 C 48.240 169.104,49.197 169.630,49.516 169.815 C 51.440 170.929,53.548 171.761,54.461 171.766 C 55.039 171.769,56.209 172.023,57.060 172.329 C 59.185 173.095,65.623 173.102,67.445 172.340 C 68.209 172.021,69.423 171.760,70.143 171.760 C 71.739 171.760,73.813 171.096,74.855 170.252 C 75.280 169.908,76.487 169.192,77.536 168.662 C 79.550 167.644,85.880 161.869,85.880 161.050 C 85.880 160.785,86.377 159.997,86.984 159.298 C 87.591 158.599,88.183 157.592,88.299 157.060 C 88.531 155.996,89.103 154.338,90.194 151.572 C 91.008 149.509,91.222 141.300,90.511 139.429 C 90.008 138.106,90.496 137.531,94.184 135.095 C 95.680 134.107,96.963 133.161,97.034 132.993 C 97.105 132.826,97.369 132.689,97.620 132.689 C 98.165 132.689,101.077 131.173,101.354 130.745 C 101.460 130.581,102.404 129.992,103.451 129.435 C 104.498 128.879,105.891 128.031,106.546 127.551 C 107.201 127.070,108.520 126.291,109.478 125.820 C 110.435 125.348,111.808 124.438,112.528 123.796 C 113.249 123.155,114.079 122.631,114.373 122.631 C 114.928 122.631,117.073 121.320,118.762 119.951 C 119.294 119.519,119.913 119.162,120.138 119.158 C 120.362 119.153,121.146 118.700,121.878 118.151 C 122.611 117.602,124.168 116.662,125.338 116.062 C 126.509 115.462,127.888 114.519,128.404 113.965 C 128.920 113.412,129.626 112.959,129.972 112.959 C 130.319 112.959,131.422 112.440,132.422 111.806 L 134.241 110.652 137.190 112.676 C 141.414 115.576,142.844 116.405,143.654 116.424 C 144.047 116.433,144.830 116.689,145.395 116.991 C 149.403 119.139,157.927 119.528,162.669 117.780 C 164.159 117.231,165.725 116.691,166.151 116.580 C 167.386 116.258,169.935 114.817,170.983 113.849 C 171.512 113.360,172.087 112.959,172.259 112.959 C 172.737 112.959,177.541 107.832,177.786 107.060 C 177.905 106.688,178.143 106.383,178.316 106.383 C 178.488 106.383,178.843 105.867,179.105 105.235 C 179.989 103.102,182.290 102.970,185.770 104.853 C 186.479 105.237,188.332 105.742,192.070 106.571 C 194.290 107.063,195.015 107.275,198.066 108.322 C 198.810 108.578,200.116 108.910,200.967 109.061 C 201.818 109.212,202.895 109.541,203.359 109.793 C 203.824 110.045,204.663 110.251,205.222 110.251 C 205.782 110.251,206.591 110.439,207.019 110.668 C 207.940 111.161,211.042 112.068,213.692 112.620 C 216.971 113.303,217.843 114.428,218.753 119.149 C 219.125 121.075,220.193 123.895,220.778 124.496 C 221.052 124.777,221.277 125.160,221.277 125.347 C 221.277 129.223,232.499 137.426,240.039 139.060 C 246.047 140.362,257.582 138.843,258.991 136.563 C 259.124 136.347,259.555 136.170,259.948 136.170 C 260.340 136.170,261.352 135.604,262.195 134.913 C 263.039 134.221,264.123 133.395,264.604 133.075 C 266.545 131.789,271.954 124.940,271.954 123.769 C 271.954 123.526,272.198 122.779,272.498 122.109 C 274.043 118.646,274.711 115.202,274.618 111.177 C 274.568 108.969,274.600 107.097,274.691 107.015 C 275.662 106.144,280.756 102.901,281.154 102.901 C 281.441 102.901,282.231 102.483,282.908 101.973 C 283.585 101.462,285.024 100.548,286.106 99.942 C 287.187 99.335,289.363 98.114,290.941 97.227 C 292.519 96.341,294.507 95.102,295.358 94.474 C 296.209 93.846,297.371 93.223,297.939 93.088 C 298.508 92.954,299.490 92.409,300.121 91.878 C 300.752 91.347,302.303 90.399,303.567 89.772 C 304.831 89.144,306.083 88.369,306.349 88.049 C 306.614 87.729,307.471 87.263,308.251 87.013 C 309.032 86.763,310.569 85.891,311.666 85.074 C 314.312 83.103,315.935 82.969,317.457 84.594 C 318.069 85.246,319.526 86.439,320.696 87.245 C 321.867 88.051,322.911 88.813,323.018 88.939 C 323.421 89.416,325.815 90.522,326.444 90.522 C 326.805 90.522,327.447 90.765,327.871 91.062 C 331.514 93.614,341.874 93.613,347.641 91.062 C 348.311 90.765,349.014 90.522,349.203 90.522 C 350.943 90.522,360.517 82.902,360.537 81.501 C 360.540 81.327,361.040 80.456,361.649 79.567 C 362.258 78.677,362.889 77.515,363.050 76.983 C 363.212 76.451,363.477 75.841,363.639 75.629 C 363.801 75.416,364.057 74.632,364.207 73.888 C 364.358 73.143,364.726 71.788,365.026 70.876 C 365.750 68.673,365.755 61.539,365.034 59.813 C 364.739 59.106,364.372 57.786,364.219 56.879 C 363.876 54.849,362.837 52.462,361.530 50.699 C 360.986 49.966,360.540 49.182,360.538 48.958 C 360.530 48.022,354.032 42.088,352.031 41.190 C 351.286 40.856,350.416 40.425,350.097 40.233 C 345.872 37.689,337.079 36.419,332.689 37.720 M303.409 133.170 C 303.010 133.787,302.797 344.566,303.190 350.290 L 303.482 354.545 338.104 354.545 L 372.727 354.545 372.727 243.714 L 372.727 132.882 338.225 132.783 C 310.883 132.705,303.658 132.785,303.409 133.170 M371.713 133.986 C 372.034 134.372,372.123 163.421,372.051 244.141 L 371.954 353.772 338.104 353.772 L 304.255 353.772 304.158 243.930 C 304.080 156.312,304.159 134.027,304.545 133.782 C 305.471 133.193,371.222 133.394,371.713 133.986 M120.489 160.249 C 120.388 160.516,120.349 204.342,120.404 257.640 L 120.503 354.545 155.126 354.545 L 189.749 354.545 189.995 350.870 C 190.311 346.165,190.303 170.786,189.986 164.603 L 189.749 159.961 155.211 159.863 C 127.785 159.784,120.636 159.864,120.489 160.249 M188.685 160.861 C 189.072 161.106,189.150 180.684,189.072 257.470 L 188.975 353.772 155.126 353.772 L 121.277 353.772 121.179 257.470 C 121.101 180.684,121.180 161.106,121.566 160.861 C 121.832 160.692,136.934 160.553,155.126 160.553 C 173.317 160.553,188.419 160.692,188.685 160.861 M211.398 181.139 C 211.297 181.406,211.258 220.532,211.313 268.085 L 211.412 354.545 246.035 354.545 L 280.658 354.545 280.909 351.257 C 281.230 347.071,281.218 187.641,280.897 183.752 L 280.658 180.851 246.120 180.752 C 218.694 180.674,211.545 180.753,211.398 181.139 M280.000 181.896 C 280.676 182.571,280.676 352.825,280.000 353.501 C 279.197 354.304,212.536 354.159,212.227 353.353 C 211.920 352.553,211.920 182.843,212.227 182.043 C 212.536 181.238,279.197 181.092,280.000 181.896 M32.882 215.087 L 28.433 215.280 28.327 284.139 C 28.269 322.012,28.316 353.390,28.432 353.868 L 28.641 354.739 63.222 354.739 L 97.803 354.739 98.053 351.547 C 98.399 347.123,98.134 215.606,97.778 215.250 C 97.456 214.929,39.857 214.784,32.882 215.087 M97.085 216.609 C 97.623 217.613,97.645 351.560,97.108 352.973 L 96.731 353.965 63.484 353.965 C 45.198 353.965,29.962 353.860,29.625 353.730 C 28.987 353.485,28.635 216.755,29.271 216.119 C 30.022 215.368,96.679 215.850,97.085 216.609 " stroke="none" fill="#747474" fill-rule="evenodd"></path><path id="path3" d="M331.335 36.953 C 330.271 37.248,329.012 37.498,328.538 37.507 C 327.180 37.534,324.565 38.714,324.565 39.300 C 324.565 39.592,324.086 39.937,323.501 40.067 C 321.324 40.552,321.060 40.700,320.066 42.005 C 319.506 42.738,318.446 43.624,317.709 43.974 C 316.973 44.323,316.269 44.887,316.145 45.225 C 316.021 45.564,315.427 46.353,314.826 46.979 C 314.225 47.604,313.733 48.470,313.733 48.902 C 313.733 49.626,313.785 49.613,314.392 48.732 C 314.755 48.206,315.251 47.602,315.495 47.389 C 315.739 47.176,316.421 46.349,317.009 45.551 C 317.598 44.753,318.301 44.101,318.571 44.101 C 318.841 44.101,319.837 43.337,320.783 42.404 C 321.729 41.472,323.052 40.588,323.723 40.440 C 324.394 40.293,325.031 40.030,325.139 39.856 C 325.470 39.320,328.413 37.911,329.200 37.911 C 329.609 37.911,330.945 37.650,332.171 37.331 C 337.581 35.922,348.277 37.401,350.595 39.879 C 350.976 40.286,351.627 40.619,352.042 40.619 C 353.285 40.619,359.790 46.574,360.917 48.743 C 361.303 49.487,361.976 50.419,362.411 50.812 C 362.846 51.205,363.492 52.511,363.848 53.713 C 364.203 54.916,364.548 56.074,364.615 56.286 C 364.681 56.499,364.750 56.184,364.766 55.587 C 364.818 53.744,363.955 51.027,363.166 50.550 C 362.753 50.301,361.725 48.921,360.880 47.484 C 359.747 45.556,358.945 44.668,357.816 44.092 C 356.975 43.662,356.286 43.141,356.286 42.932 C 356.286 42.724,356.066 42.553,355.798 42.553 C 355.529 42.553,355.137 42.162,354.927 41.683 C 354.671 41.099,354.027 40.697,352.971 40.462 C 351.867 40.217,351.212 39.792,350.781 39.041 C 350.285 38.176,349.804 37.922,348.294 37.729 C 347.264 37.598,345.575 37.237,344.540 36.927 C 342.104 36.198,333.996 36.214,331.335 36.953 M312.215 50.448 C 311.725 51.038,309.865 56.632,309.865 57.514 C 309.865 57.811,309.619 58.440,309.318 58.911 C 308.992 59.422,308.660 61.456,308.496 63.954 C 308.238 67.887,308.165 68.162,307.302 68.490 C 306.797 68.682,306.383 68.998,306.383 69.191 C 306.383 69.384,306.078 69.648,305.706 69.776 C 305.334 69.905,304.507 70.360,303.868 70.787 C 303.230 71.215,302.229 71.756,301.644 71.990 C 301.059 72.224,300.580 72.530,300.580 72.669 C 300.580 72.808,299.753 73.353,298.743 73.879 C 297.732 74.405,296.766 75.057,296.596 75.329 C 296.426 75.600,295.956 75.822,295.551 75.822 C 295.147 75.822,294.677 76.040,294.507 76.306 C 294.125 76.903,292.990 77.634,291.586 78.187 C 291.001 78.417,290.522 78.763,290.522 78.955 C 290.522 79.147,290.301 79.304,290.030 79.304 C 289.759 79.304,288.612 79.913,287.482 80.658 C 286.351 81.402,285.288 82.012,285.120 82.012 C 284.952 82.012,284.598 82.273,284.333 82.592 C 284.068 82.911,283.593 83.172,283.277 83.172 C 282.961 83.172,282.069 83.671,281.294 84.281 C 280.518 84.891,279.492 85.512,279.014 85.661 C 278.535 85.810,278.143 86.095,278.143 86.293 C 278.143 86.491,277.807 86.654,277.397 86.654 C 276.987 86.654,276.421 86.874,276.140 87.142 C 275.859 87.411,275.135 87.947,274.531 88.334 C 273.928 88.720,273.535 89.138,273.658 89.261 C 273.782 89.385,274.189 89.223,274.562 88.902 C 274.936 88.581,275.503 88.203,275.822 88.062 C 276.141 87.921,276.925 87.462,277.563 87.042 C 278.201 86.622,279.127 86.102,279.620 85.885 C 280.114 85.669,281.087 85.057,281.784 84.526 C 282.481 83.994,283.213 83.559,283.411 83.559 C 283.608 83.559,284.724 82.931,285.889 82.164 C 287.054 81.396,288.617 80.434,289.362 80.025 C 290.106 79.616,291.238 78.941,291.876 78.525 C 292.515 78.108,293.385 77.589,293.810 77.369 C 294.236 77.150,295.106 76.627,295.745 76.207 C 296.383 75.787,297.340 75.228,297.872 74.964 C 298.404 74.700,298.926 74.375,299.033 74.241 C 299.139 74.108,301.064 72.930,303.311 71.623 C 309.232 68.179,309.088 68.366,309.105 64.105 C 309.114 61.748,309.305 60.214,309.671 59.574 C 309.975 59.043,310.230 58.198,310.238 57.699 C 310.256 56.468,312.239 51.846,313.290 50.580 C 313.785 49.985,313.781 49.903,313.260 49.903 C 312.934 49.903,312.464 50.148,312.215 50.448 M364.811 57.544 C 364.818 57.703,365.073 58.269,365.377 58.801 C 365.784 59.513,365.930 61.198,365.930 65.184 C 365.930 69.169,365.784 70.855,365.377 71.567 C 364.631 72.872,364.607 73.753,365.334 73.150 C 367.238 71.570,367.620 60.061,365.845 57.737 C 365.440 57.206,364.789 57.084,364.811 57.544 M148.720 62.850 C 148.307 63.163,147.425 63.424,146.761 63.431 C 145.555 63.443,142.148 64.744,141.907 65.285 C 141.837 65.442,141.085 65.919,140.236 66.344 C 139.387 66.770,138.082 67.648,137.335 68.296 C 136.588 68.944,135.490 69.780,134.896 70.154 C 134.301 70.528,133.668 71.216,133.488 71.684 C 133.309 72.151,132.620 73.014,131.958 73.601 C 131.296 74.187,130.754 74.927,130.754 75.245 C 130.754 75.562,130.597 75.822,130.405 75.822 C 130.213 75.822,129.865 76.301,129.632 76.886 C 129.399 77.471,128.780 78.646,128.257 79.497 C 127.734 80.348,127.305 81.567,127.303 82.205 C 127.301 83.177,127.422 83.029,128.045 81.296 C 128.455 80.157,128.973 79.005,129.197 78.735 C 129.421 78.465,129.994 77.534,130.470 76.666 C 133.758 70.666,141.526 64.904,148.356 63.399 C 150.973 62.823,159.017 62.689,160.638 63.195 C 161.307 63.403,161.702 63.384,161.702 63.143 C 161.702 62.107,150.050 61.844,148.720 62.850 M163.250 63.812 C 165.499 64.278,170.443 66.900,172.680 68.815 C 176.415 72.011,180.640 77.326,180.670 78.864 C 180.677 79.212,180.938 79.835,181.250 80.248 C 181.563 80.661,181.824 81.444,181.830 81.989 C 181.837 82.533,182.098 83.317,182.411 83.730 C 182.723 84.143,182.979 84.954,182.979 85.533 C 182.979 86.655,185.451 88.246,187.066 88.163 C 187.787 88.125,187.786 88.114,187.041 87.842 C 183.899 86.697,183.007 85.467,182.328 81.348 C 182.216 80.664,181.881 79.903,181.584 79.657 C 181.287 79.410,181.041 78.839,181.036 78.386 C 181.031 77.933,180.687 77.128,180.271 76.596 C 179.855 76.064,179.510 75.492,179.506 75.325 C 179.501 75.159,179.018 74.549,178.433 73.971 C 177.848 73.394,177.159 72.450,176.903 71.875 C 176.646 71.301,175.863 70.537,175.162 70.179 C 174.461 69.821,173.448 69.042,172.911 68.447 C 172.374 67.853,171.020 66.876,169.903 66.275 C 168.786 65.675,167.143 64.792,166.253 64.313 C 165.354 63.831,164.024 63.463,163.264 63.487 L 161.896 63.532 163.250 63.812 M364.472 74.586 C 364.174 78.885,356.647 87.689,351.064 90.271 C 350.213 90.664,348.994 91.232,348.356 91.532 C 345.990 92.643,344.389 92.986,340.426 93.228 L 336.364 93.475 340.392 93.546 C 344.589 93.620,348.434 92.820,348.829 91.791 C 348.933 91.519,349.402 91.296,349.871 91.296 C 350.339 91.296,351.060 91.040,351.473 90.728 C 351.886 90.416,352.468 90.154,352.766 90.148 C 353.063 90.141,353.898 89.526,354.622 88.781 C 355.345 88.037,356.159 87.427,356.431 87.427 C 356.703 87.427,357.434 86.807,358.057 86.049 C 358.679 85.290,359.666 84.160,360.251 83.538 C 360.837 82.915,361.315 82.241,361.315 82.039 C 361.315 81.837,361.838 81.101,362.476 80.402 C 363.114 79.703,363.636 78.903,363.636 78.624 C 363.636 78.344,363.909 77.699,364.243 77.190 C 364.603 76.641,364.786 75.740,364.692 74.979 C 364.594 74.186,364.510 74.036,364.472 74.586 M240.989 83.542 C 238.244 83.823,237.524 84.102,237.524 84.885 C 237.524 85.175,236.905 85.480,236.074 85.599 C 234.179 85.871,231.265 87.227,229.651 88.588 C 226.982 90.837,221.663 96.184,221.663 96.617 C 221.663 97.018,221.220 97.097,219.826 96.945 C 218.815 96.834,218.337 96.840,218.762 96.959 C 219.188 97.077,219.701 97.331,219.903 97.523 C 220.540 98.128,221.602 97.903,221.853 97.111 C 222.536 94.958,232.548 86.654,234.460 86.654 C 234.844 86.654,235.265 86.480,235.397 86.267 C 235.528 86.054,236.020 85.880,236.489 85.880 C 236.958 85.880,238.036 85.497,238.884 85.028 C 241.239 83.726,251.277 83.713,253.573 85.010 C 254.421 85.488,255.416 85.880,255.784 85.880 C 256.866 85.880,261.388 87.940,262.089 88.752 C 262.302 88.999,263.085 89.575,263.830 90.034 C 264.574 90.492,265.513 91.312,265.915 91.855 C 266.317 92.399,266.985 92.843,267.400 92.843 C 268.218 92.843,273.288 89.627,272.760 89.443 C 272.341 89.296,269.632 90.894,269.632 91.289 C 269.632 91.456,269.328 91.680,268.956 91.787 C 268.583 91.894,267.997 92.098,267.653 92.241 C 267.204 92.426,266.803 92.120,266.238 91.163 C 265.712 90.271,265.053 89.739,264.260 89.565 C 263.508 89.399,262.889 88.926,262.579 88.278 C 262.299 87.693,261.588 87.104,260.928 86.908 C 260.290 86.719,259.196 86.324,258.498 86.029 C 257.799 85.734,256.810 85.493,256.299 85.493 C 255.727 85.493,255.282 85.211,255.138 84.757 C 254.703 83.388,248.052 82.817,240.989 83.542 M126.561 84.931 C 126.290 85.527,126.141 87.630,126.184 90.250 L 126.256 94.584 126.521 90.329 C 126.666 87.988,126.915 85.595,127.074 85.010 C 127.437 83.674,127.154 83.631,126.561 84.931 M312.186 85.477 C 311.228 86.307,309.903 87.089,309.241 87.214 C 308.578 87.340,307.713 87.800,307.318 88.236 C 306.923 88.673,305.361 89.602,303.846 90.302 C 302.331 91.002,300.984 91.853,300.854 92.193 C 300.723 92.534,300.043 92.977,299.341 93.180 C 298.071 93.546,298.070 93.547,299.159 93.582 C 299.890 93.605,300.638 93.231,301.413 92.456 C 302.052 91.818,302.663 91.296,302.772 91.296 C 303.474 91.296,307.989 88.885,308.170 88.413 C 308.292 88.096,308.993 87.723,309.728 87.585 C 310.462 87.447,311.272 87.133,311.528 86.888 C 311.783 86.642,312.849 85.880,313.896 85.194 C 315.491 84.148,315.648 83.948,314.863 83.957 C 314.342 83.964,313.154 84.638,312.186 85.477 M316.054 84.350 C 316.054 84.951,318.661 87.420,319.316 87.440 C 319.543 87.447,320.330 88.056,321.065 88.794 C 321.799 89.532,322.669 90.141,322.999 90.148 C 323.328 90.154,323.936 90.416,324.349 90.728 C 324.762 91.040,325.493 91.296,325.973 91.296 C 326.454 91.296,326.994 91.557,327.172 91.876 C 327.601 92.642,331.480 93.632,333.771 93.560 L 335.590 93.503 333.462 93.225 C 331.156 92.924,329.288 92.393,327.466 91.522 C 326.828 91.216,325.709 90.745,324.979 90.475 C 324.249 90.205,322.943 89.450,322.077 88.799 C 321.211 88.147,319.981 87.284,319.342 86.881 C 318.704 86.478,317.703 85.622,317.118 84.977 C 316.502 84.300,316.054 84.035,316.054 84.350 M189.116 88.797 C 190.788 89.522,191.461 89.521,190.499 88.794 C 190.086 88.481,189.313 88.227,188.781 88.229 C 187.901 88.231,187.931 88.282,189.116 88.797 M194.197 90.187 C 195.580 90.618,197.234 91.152,197.872 91.375 C 198.511 91.598,199.642 91.868,200.387 91.975 C 201.132 92.083,202.084 92.409,202.504 92.700 C 202.924 92.992,203.794 93.231,204.438 93.233 C 205.082 93.234,206.108 93.495,206.717 93.813 C 207.327 94.131,208.284 94.397,208.845 94.404 C 209.406 94.412,210.300 94.667,210.832 94.971 C 211.364 95.275,212.147 95.524,212.573 95.524 C 213.079 95.525,212.811 95.267,211.799 94.778 C 210.948 94.366,209.793 94.024,209.232 94.017 C 208.671 94.010,207.714 93.744,207.104 93.426 C 206.495 93.108,205.418 92.847,204.711 92.846 C 204.005 92.844,203.165 92.582,202.846 92.263 C 202.527 91.944,201.625 91.677,200.843 91.670 C 200.060 91.664,199.082 91.403,198.669 91.090 C 198.256 90.778,197.375 90.522,196.712 90.522 C 196.048 90.522,195.168 90.267,194.755 89.954 C 194.342 89.642,193.482 89.390,192.843 89.395 C 191.986 89.402,192.339 89.609,194.197 90.187 M295.365 95.165 C 294.305 95.995,293.032 96.775,292.538 96.899 C 292.043 97.023,290.821 97.689,289.823 98.378 C 288.825 99.067,287.485 99.859,286.847 100.137 C 286.209 100.416,284.787 101.239,283.687 101.966 C 282.587 102.693,281.549 103.288,281.380 103.288 C 281.210 103.288,279.718 104.202,278.063 105.319 L 275.054 107.350 275.051 111.830 C 275.048 116.214,274.162 120.691,273.006 122.156 C 272.792 122.427,272.717 122.750,272.840 122.872 C 273.291 123.323,273.865 122.565,274.126 121.176 C 274.273 120.391,274.613 119.529,274.881 119.261 C 275.507 118.635,275.975 113.648,275.730 110.218 L 275.539 107.556 277.228 106.566 C 278.157 106.022,278.917 105.410,278.917 105.206 C 278.917 105.002,279.157 104.836,279.450 104.836 C 279.743 104.836,280.185 104.592,280.433 104.293 C 280.680 103.995,281.354 103.633,281.931 103.489 C 282.507 103.346,283.501 102.837,284.139 102.359 C 284.778 101.880,286.320 100.980,287.567 100.358 C 288.814 99.735,290.253 98.841,290.764 98.369 C 291.275 97.898,292.344 97.330,293.139 97.107 C 293.934 96.884,295.368 96.013,296.325 95.171 C 298.564 93.202,297.880 93.198,295.365 95.165 M125.137 95.326 C 124.707 95.556,123.816 96.132,123.157 96.605 C 122.497 97.079,121.500 97.640,120.940 97.853 C 120.381 98.066,119.923 98.418,119.923 98.636 C 119.923 98.854,119.688 99.033,119.400 99.033 C 119.113 99.033,118.146 99.563,117.252 100.211 C 116.358 100.859,115.200 101.551,114.679 101.749 C 114.159 101.947,113.733 102.289,113.733 102.511 C 113.733 102.732,114.386 102.474,115.184 101.939 C 115.982 101.403,116.983 100.789,117.408 100.574 C 117.834 100.358,118.648 99.880,119.218 99.511 C 119.788 99.142,121.529 98.074,123.086 97.138 C 126.308 95.202,126.298 95.209,126.080 95.036 C 125.991 94.965,125.567 95.096,125.137 95.326 M214.507 95.827 C 214.932 95.929,215.446 96.170,215.648 96.363 C 215.850 96.555,216.372 96.711,216.809 96.709 C 217.469 96.707,217.416 96.610,216.493 96.129 C 215.884 95.811,215.014 95.571,214.559 95.596 C 213.778 95.639,213.775 95.651,214.507 95.827 M111.087 104.062 C 110.205 104.700,109.321 105.222,109.122 105.222 C 108.922 105.222,108.522 105.440,108.232 105.706 C 107.430 106.441,106.305 107.123,105.126 107.587 C 104.541 107.817,104.062 108.151,104.062 108.329 C 104.062 108.507,103.670 108.774,103.191 108.923 C 102.713 109.072,101.687 109.693,100.911 110.303 C 100.136 110.913,99.217 111.412,98.868 111.412 C 98.520 111.412,98.141 111.656,98.027 111.954 C 97.912 112.252,97.526 112.603,97.169 112.734 C 96.811 112.865,96.170 113.190,95.745 113.457 C 92.923 115.227,91.683 116.094,91.683 116.297 C 91.683 116.425,92.139 116.231,92.697 115.866 C 94.310 114.808,98.246 112.429,99.364 111.836 C 99.927 111.537,100.474 111.187,100.580 111.059 C 100.965 110.594,105.543 107.930,105.958 107.930 C 106.192 107.930,106.383 107.784,106.383 107.606 C 106.383 107.427,106.775 107.077,107.253 106.828 C 107.732 106.579,108.646 106.030,109.284 105.609 C 109.923 105.188,110.880 104.626,111.412 104.361 C 112.558 103.788,113.551 102.901,113.045 102.901 C 112.849 102.901,111.968 103.424,111.087 104.062 M179.864 105.363 C 179.430 106.099,178.821 106.798,178.512 106.917 C 178.203 107.035,177.950 107.376,177.950 107.673 C 177.950 108.270,173.201 113.346,172.643 113.346 C 172.451 113.346,171.772 113.857,171.134 114.480 C 170.496 115.104,169.201 115.901,168.256 116.252 C 167.311 116.603,166.090 117.129,165.543 117.421 C 160.441 120.139,147.822 120.101,144.650 117.356 C 144.314 117.066,143.740 116.828,143.374 116.828 C 142.463 116.828,140.541 115.814,138.685 114.355 C 135.210 111.623,131.551 111.800,128.232 114.860 C 127.339 115.682,126.050 116.478,125.367 116.628 C 124.684 116.778,124.027 117.157,123.907 117.470 C 123.787 117.783,122.421 118.658,120.872 119.414 C 119.255 120.202,117.976 121.087,117.871 121.489 C 117.757 121.928,117.055 122.360,116.001 122.642 C 115.073 122.890,113.580 123.691,112.685 124.422 C 111.789 125.154,110.402 126.025,109.603 126.359 C 108.804 126.693,107.970 127.202,107.750 127.490 C 107.530 127.778,106.110 128.622,104.594 129.365 C 103.078 130.109,101.743 130.966,101.626 131.269 C 101.509 131.573,100.607 132.097,99.621 132.433 C 96.507 133.494,91.121 137.682,91.445 138.791 C 92.435 142.176,91.885 151.829,90.676 152.293 C 90.379 152.407,90.134 152.874,90.133 153.330 C 90.132 153.786,89.871 154.657,89.553 155.267 C 89.235 155.876,88.975 156.661,88.975 157.011 C 88.975 157.786,85.961 162.476,85.463 162.476 C 85.267 162.476,85.106 162.734,85.106 163.050 C 85.106 163.366,84.246 164.280,83.194 165.081 C 82.142 165.882,81.272 166.735,81.260 166.977 C 81.240 167.366,79.007 168.665,78.358 168.665 C 78.222 168.665,77.900 168.842,77.643 169.057 C 75.022 171.253,74.106 171.723,72.029 171.936 C 70.817 172.060,69.304 172.368,68.665 172.621 C 66.757 173.375,58.379 173.465,56.665 172.749 C 55.873 172.418,54.767 172.167,54.208 172.192 C 53.424 172.227,53.368 172.277,53.965 172.412 C 54.391 172.508,55.264 172.825,55.906 173.116 C 56.969 173.598,60.376 173.794,66.413 173.719 C 67.583 173.705,68.642 173.469,68.958 173.153 C 69.266 172.845,70.798 172.491,72.517 172.330 C 74.829 172.113,75.727 171.855,76.353 171.226 C 77.653 169.921,79.662 168.665,80.450 168.665 C 81.731 168.665,82.398 168.217,82.398 167.357 C 82.398 166.747,82.848 166.309,84.043 165.754 C 85.332 165.155,85.714 164.754,85.812 163.896 C 85.903 163.103,86.261 162.665,87.110 162.308 C 88.259 161.825,89.061 160.182,89.895 156.602 C 90.028 156.031,90.467 155.460,90.869 155.332 C 91.342 155.182,91.690 154.590,91.851 153.662 C 92.486 150.007,92.781 144.907,92.574 141.159 L 92.347 137.058 93.472 136.666 C 94.091 136.450,95.029 135.818,95.558 135.261 C 96.086 134.705,96.679 134.246,96.875 134.243 C 97.071 134.239,97.506 133.991,97.842 133.692 C 98.178 133.393,99.236 132.998,100.193 132.814 C 101.423 132.577,102.045 132.228,102.313 131.623 C 102.682 130.791,103.599 130.288,106.383 129.389 C 107.202 129.125,107.937 128.543,108.242 127.919 C 108.528 127.332,109.068 126.886,109.491 126.886 C 110.915 126.886,113.158 125.711,113.926 124.562 C 114.455 123.772,115.129 123.335,116.054 123.181 C 118.132 122.837,118.361 122.716,118.730 121.770 C 118.948 121.210,119.755 120.632,120.948 120.182 C 121.980 119.793,123.216 119.318,123.694 119.126 C 124.193 118.927,124.565 118.447,124.565 118.001 C 124.565 117.384,124.904 117.172,126.209 116.972 C 127.465 116.779,128.241 116.320,129.496 115.027 C 131.814 112.639,135.580 112.367,137.770 114.430 C 139.354 115.921,140.649 116.646,142.430 117.037 C 143.136 117.192,143.938 117.638,144.211 118.029 C 146.034 120.631,166.344 120.290,166.344 117.658 C 166.344 117.487,167.245 117.140,168.346 116.886 C 169.903 116.526,170.639 116.082,171.664 114.885 C 172.388 114.039,173.227 113.346,173.527 113.346 C 174.354 113.346,177.948 109.427,178.200 108.252 C 178.344 107.580,178.749 107.137,179.359 106.984 C 179.875 106.854,180.493 106.318,180.733 105.792 C 181.271 104.611,182.779 104.513,183.921 105.585 C 184.395 106.031,185.740 106.501,187.234 106.743 C 189.654 107.136,192.968 107.262,191.296 106.899 C 188.074 106.197,185.612 105.516,184.670 105.065 C 182.064 103.818,180.726 103.901,179.864 105.363 M193.241 107.669 C 194.235 108.336,198.859 109.865,199.883 109.865 C 200.321 109.865,201.304 110.126,202.068 110.445 C 202.832 110.764,203.963 111.025,204.582 111.025 C 205.201 111.025,205.925 111.286,206.190 111.605 C 206.454 111.925,207.152 112.186,207.740 112.186 C 208.328 112.186,209.308 112.446,209.917 112.764 C 210.527 113.081,211.621 113.343,212.349 113.344 C 214.978 113.349,216.514 114.462,216.765 116.544 C 216.887 117.558,217.255 118.772,217.584 119.241 C 217.913 119.711,218.182 120.545,218.182 121.095 C 218.182 121.646,218.437 122.434,218.750 122.847 C 219.062 123.260,219.323 123.981,219.330 124.449 C 219.337 124.917,219.573 125.439,219.855 125.609 C 220.137 125.780,220.492 126.180,220.644 126.499 C 221.195 127.658,221.874 128.699,222.460 129.285 C 222.789 129.614,223.652 130.601,224.378 131.479 C 225.104 132.357,225.829 133.075,225.989 133.075 C 226.149 133.075,226.900 133.696,227.658 134.454 C 228.417 135.212,229.683 136.103,230.473 136.433 C 231.262 136.762,232.394 137.441,232.987 137.940 C 233.580 138.439,234.713 138.957,235.505 139.091 C 236.296 139.224,237.644 139.588,238.500 139.899 C 242.842 141.474,257.561 139.947,259.691 137.700 C 260.287 137.071,261.157 136.554,261.625 136.550 C 262.520 136.542,265.377 134.299,265.377 133.604 C 265.377 133.381,266.045 132.979,266.862 132.709 C 268.010 132.330,268.456 131.917,268.830 130.881 C 269.096 130.145,269.560 129.449,269.860 129.334 C 270.160 129.218,270.406 128.896,270.406 128.618 C 270.406 128.339,270.543 128.053,270.710 127.982 C 271.458 127.665,272.723 125.310,272.682 124.312 C 272.651 123.532,272.582 123.429,272.447 123.958 C 272.172 125.036,268.475 130.307,267.164 131.490 C 265.064 133.384,264.744 133.658,263.219 134.858 C 262.378 135.519,261.258 136.192,260.729 136.353 C 260.201 136.514,259.420 136.953,258.994 137.329 C 255.276 140.611,241.001 140.960,234.429 137.929 C 229.794 135.792,223.168 130.425,222.050 127.903 C 221.944 127.663,221.378 126.730,220.793 125.830 C 220.208 124.930,219.729 124.086,219.729 123.954 C 219.729 123.822,219.486 123.166,219.188 122.496 C 218.890 121.825,218.467 120.580,218.246 119.729 C 216.919 114.605,216.827 114.405,215.464 113.674 C 214.731 113.281,213.709 112.959,213.193 112.959 C 212.031 112.959,208.286 111.897,206.904 111.175 C 206.339 110.880,205.492 110.638,205.021 110.638 C 204.551 110.638,203.359 110.390,202.373 110.087 C 201.387 109.783,199.536 109.244,198.259 108.888 C 196.983 108.532,195.366 107.997,194.668 107.699 C 193.062 107.014,192.239 106.996,193.241 107.669 M60.542 116.254 C 60.329 116.330,59.170 116.586,57.967 116.823 C 56.763 117.060,55.387 117.594,54.909 118.008 C 53.868 118.912,54.520 118.995,56.127 118.164 C 58.170 117.108,67.460 116.893,68.784 117.872 C 69.385 118.316,70.830 118.773,72.152 118.937 C 75.020 119.293,76.685 119.968,78.394 121.469 C 79.973 122.855,81.269 122.928,83.233 121.743 C 84.011 121.274,86.056 120.046,87.778 119.016 C 90.820 117.195,91.750 116.441,90.955 116.441 C 90.742 116.441,90.454 116.626,90.314 116.852 C 90.174 117.078,89.685 117.428,89.227 117.631 C 88.769 117.834,87.872 118.343,87.234 118.762 C 86.596 119.181,85.700 119.690,85.244 119.892 C 84.787 120.094,84.352 120.401,84.277 120.575 C 84.065 121.060,81.647 122.244,80.867 122.244 C 80.133 122.244,79.409 121.542,78.729 120.172 C 78.402 119.512,77.806 119.278,75.813 119.027 C 72.082 118.556,71.567 118.411,71.567 117.832 C 71.567 116.625,62.951 115.392,60.542 116.254 M50.395 119.034 C 49.920 119.126,49.199 119.624,48.791 120.142 C 48.384 120.660,47.766 121.083,47.418 121.083 C 47.069 121.083,46.687 121.338,46.567 121.649 C 46.448 121.960,45.977 122.333,45.522 122.477 C 44.616 122.765,39.845 127.185,39.845 127.737 C 39.845 127.925,39.668 128.289,39.451 128.546 C 37.891 130.397,37.524 130.929,37.524 131.346 C 37.524 131.607,37.263 132.037,36.944 132.302 C 36.625 132.567,36.364 133.179,36.364 133.662 C 36.364 134.145,36.103 134.640,35.783 134.763 C 35.377 134.919,35.223 135.482,35.268 136.642 C 35.333 138.286,35.334 138.288,35.483 136.877 C 35.566 136.095,35.885 135.247,36.192 134.992 C 36.499 134.737,36.750 134.212,36.750 133.825 C 36.750 133.438,36.910 133.023,37.104 132.903 C 37.298 132.783,37.817 131.945,38.256 131.042 C 39.631 128.215,46.413 121.470,47.880 121.470 C 48.076 121.470,48.551 121.122,48.936 120.696 C 49.321 120.271,49.923 119.923,50.273 119.923 C 50.623 119.923,51.074 119.763,51.277 119.569 C 51.479 119.374,52.079 119.136,52.611 119.041 C 53.446 118.891,53.420 118.867,52.418 118.867 C 51.779 118.867,50.869 118.942,50.395 119.034 M302.749 132.914 C 302.620 133.250,302.515 134.536,302.515 135.771 C 302.515 137.006,302.292 138.445,302.020 138.969 C 301.326 140.307,301.054 346.589,301.744 348.356 C 301.993 348.994,302.320 350.648,302.470 352.031 C 302.620 353.414,302.757 304.789,302.774 243.975 C 302.791 181.334,302.951 133.265,303.143 133.084 C 303.329 132.908,303.830 132.680,304.255 132.578 C 304.861 132.432,304.808 132.382,304.007 132.347 C 303.399 132.320,302.889 132.550,302.749 132.914 M371.954 132.565 C 372.379 132.682,372.871 132.976,373.047 133.217 C 373.258 133.507,373.313 133.459,373.210 133.075 C 373.124 132.756,372.632 132.463,372.117 132.424 C 371.378 132.367,371.344 132.397,371.954 132.565 M373.426 243.714 C 373.426 303.182,373.553 350.706,373.708 349.323 C 374.077 346.038,374.077 141.390,373.708 138.104 C 373.553 136.721,373.426 184.246,373.426 243.714 M34.216 139.399 C 34.091 139.898,34.059 140.986,34.144 141.816 C 34.296 143.293,34.301 143.286,34.364 141.512 C 34.400 140.514,34.603 139.590,34.816 139.458 C 35.313 139.151,35.318 138.491,34.824 138.491 C 34.615 138.491,34.342 138.900,34.216 139.399 M34.101 150.146 C 34.062 151.324,34.241 152.101,34.623 152.418 C 34.942 152.683,35.203 153.475,35.203 154.178 C 35.203 154.882,35.464 155.718,35.783 156.038 C 36.103 156.357,36.364 156.966,36.364 157.392 C 36.364 157.817,36.584 158.395,36.854 158.676 C 37.124 158.958,37.516 159.562,37.724 160.021 C 38.528 161.781,43.558 167.505,44.302 167.505 C 44.571 167.505,44.892 167.766,45.014 168.085 C 45.137 168.404,45.485 168.665,45.788 168.665 C 46.091 168.665,46.439 168.926,46.562 169.246 C 46.684 169.565,47.129 169.826,47.551 169.826 C 47.972 169.826,48.457 170.063,48.627 170.354 C 49.064 171.099,51.245 172.151,52.302 172.126 C 52.922 172.111,52.625 171.875,51.319 171.345 C 50.289 170.927,49.189 170.327,48.874 170.012 C 48.559 169.697,48.126 169.439,47.912 169.439 C 45.895 169.439,36.782 159.394,36.738 157.123 C 36.731 156.769,36.470 156.142,36.158 155.729 C 35.846 155.316,35.590 154.559,35.590 154.046 C 35.590 153.534,35.338 152.566,35.030 151.896 C 34.722 151.226,34.399 150.155,34.314 149.516 C 34.204 148.699,34.141 148.885,34.101 150.146 M189.865 159.845 C 190.480 160.460,190.547 354.566,189.932 354.871 C 189.714 354.979,189.758 355.023,190.029 354.969 C 191.011 354.772,191.112 344.292,191.011 252.998 C 190.914 165.358,190.838 159.381,189.823 159.381 C 189.540 159.381,189.554 159.535,189.865 159.845 M119.330 167.602 C 119.162 168.719,118.971 173.201,118.904 177.563 C 118.837 181.925,118.769 186.015,118.752 186.654 C 118.735 187.292,118.748 195.909,118.782 205.803 C 118.815 215.696,118.836 225.706,118.828 228.046 C 118.805 234.778,118.799 251.233,118.817 255.899 C 118.827 258.240,118.828 270.426,118.821 282.979 C 118.809 304.209,118.825 310.486,118.905 317.408 C 118.922 318.897,118.882 321.248,118.815 322.631 C 118.618 326.725,119.108 346.211,119.477 348.936 C 119.679 350.433,119.838 313.819,119.870 258.511 C 119.899 207.394,119.858 165.571,119.778 165.571 C 119.699 165.571,119.497 166.485,119.330 167.602 M220.784 180.163 C 221.471 180.249,222.690 180.250,223.492 180.166 C 224.295 180.083,223.733 180.013,222.244 180.011 C 220.754 180.009,220.098 180.078,220.784 180.163 M234.333 180.167 C 235.237 180.249,236.717 180.249,237.621 180.167 C 238.525 180.086,237.785 180.019,235.977 180.019 C 234.168 180.019,233.428 180.086,234.333 180.167 M247.883 180.168 C 248.792 180.249,250.185 180.248,250.977 180.165 C 251.770 180.082,251.025 180.015,249.323 180.017 C 247.621 180.018,246.973 180.086,247.883 180.168 M261.799 180.164 C 262.490 180.250,263.622 180.250,264.313 180.164 C 265.005 180.078,264.439 180.008,263.056 180.008 C 261.673 180.008,261.107 180.078,261.799 180.164 M275.924 180.162 C 276.512 180.250,277.383 180.248,277.858 180.156 C 278.334 180.064,277.853 179.992,276.789 179.995 C 275.725 179.997,275.336 180.073,275.924 180.162 M210.669 181.141 C 210.155 183.673,210.046 198.655,210.044 267.697 C 210.041 345.458,210.146 353.998,211.113 354.965 C 211.936 355.788,280.136 355.786,280.959 354.963 C 281.261 354.661,281.665 353.312,281.857 351.965 C 282.353 348.477,282.238 186.095,281.737 183.366 C 281.469 181.902,281.330 208.243,281.292 267.718 C 281.250 334.403,281.132 354.304,280.774 354.662 C 280.101 355.334,211.969 355.334,211.296 354.662 C 210.620 353.986,210.620 181.411,211.296 180.735 C 211.649 180.382,211.650 180.271,211.303 180.271 C 211.052 180.271,210.767 180.662,210.669 181.141 M31.528 214.283 C 30.039 214.406,44.400 214.594,63.443 214.700 L 98.066 214.894 98.305 217.795 C 98.626 221.680,98.637 346.560,98.317 351.322 C 98.179 353.380,98.153 354.976,98.259 354.870 C 99.206 353.924,99.370 343.798,99.394 284.552 C 99.420 221.393,99.315 216.088,98.006 214.700 C 97.440 214.101,38.234 213.729,31.528 214.283 M27.853 216.248 C 27.853 217.099,27.922 217.795,28.006 217.795 C 28.090 217.795,28.225 217.099,28.306 216.248 C 28.387 215.397,28.319 214.700,28.153 214.700 C 27.988 214.700,27.853 215.397,27.853 216.248 M27.655 284.526 C 27.655 319.420,27.701 333.637,27.756 316.120 C 27.812 298.604,27.812 270.054,27.756 252.677 C 27.701 235.301,27.655 249.632,27.655 284.526 M27.898 352.901 C 27.873 354.125,27.988 355.126,28.153 355.126 C 28.319 355.126,28.396 354.386,28.326 353.482 C 28.116 350.772,27.946 350.540,27.898 352.901 M119.923 354.654 C 119.923 355.497,121.545 355.532,155.513 355.423 L 189.362 355.315 155.106 355.220 C 129.086 355.148,120.739 355.014,120.387 354.662 C 120.034 354.309,119.923 354.307,119.923 354.654 M372.684 354.743 C 372.445 354.983,359.661 355.159,337.894 355.222 L 303.482 355.323 337.911 355.412 C 369.401 355.493,374.080 355.382,373.271 354.573 C 373.156 354.459,372.892 354.535,372.684 354.743 M46.161 355.416 C 55.698 355.473,71.191 355.473,80.590 355.416 C 89.989 355.358,82.186 355.311,63.250 355.311 C 44.313 355.311,36.623 355.358,46.161 355.416 " stroke="none" fill="#cfe4a8" fill-rule="evenodd"></path><path id="path4" d="M332.108 37.340 C 331.044 37.635,329.788 37.885,329.316 37.894 C 328.430 37.912,325.486 39.294,325.139 39.856 C 325.031 40.030,324.394 40.293,323.723 40.440 C 323.052 40.588,321.729 41.472,320.783 42.404 C 319.837 43.337,318.841 44.101,318.571 44.101 C 318.301 44.101,317.598 44.753,317.009 45.551 C 316.421 46.349,315.740 47.176,315.497 47.389 C 313.837 48.844,310.266 55.844,310.238 57.699 C 310.230 58.198,309.975 59.043,309.671 59.574 C 309.305 60.214,309.114 61.748,309.105 64.105 C 309.088 68.366,309.232 68.179,303.311 71.623 C 301.064 72.930,299.139 74.108,299.033 74.241 C 298.926 74.375,298.404 74.700,297.872 74.964 C 297.340 75.228,296.383 75.787,295.745 76.207 C 295.106 76.627,294.236 77.150,293.810 77.369 C 293.385 77.589,292.515 78.108,291.876 78.525 C 291.238 78.941,290.106 79.616,289.362 80.025 C 288.617 80.434,287.054 81.396,285.889 82.164 C 284.724 82.931,283.608 83.559,283.411 83.559 C 283.213 83.559,282.481 83.994,281.784 84.526 C 281.087 85.057,280.114 85.669,279.620 85.885 C 279.127 86.102,278.201 86.621,277.563 87.041 C 276.925 87.460,276.054 87.979,275.629 88.194 C 274.667 88.681,273.973 89.106,270.733 91.188 C 267.754 93.103,266.924 93.218,265.915 91.855 C 265.513 91.312,264.574 90.492,263.830 90.034 C 263.085 89.575,262.302 88.999,262.089 88.752 C 261.388 87.940,256.866 85.880,255.784 85.880 C 255.416 85.880,254.421 85.488,253.573 85.010 C 251.277 83.713,241.239 83.726,238.884 85.028 C 238.036 85.497,236.958 85.880,236.489 85.880 C 236.020 85.880,235.528 86.054,235.397 86.267 C 235.265 86.480,234.844 86.654,234.460 86.654 C 232.548 86.654,222.536 94.958,221.853 97.111 C 221.602 97.901,220.336 98.155,219.930 97.497 C 219.802 97.290,218.830 97.006,217.770 96.865 C 216.711 96.725,215.756 96.469,215.650 96.296 C 215.543 96.124,214.633 95.863,213.627 95.717 C 212.622 95.570,211.329 95.212,210.754 94.921 C 210.180 94.629,209.286 94.391,208.767 94.391 C 208.249 94.391,207.327 94.131,206.717 93.813 C 206.108 93.495,205.077 93.234,204.426 93.233 C 203.775 93.231,202.905 92.975,202.492 92.662 C 202.079 92.350,201.268 92.089,200.690 92.082 C 200.112 92.075,199.068 91.829,198.369 91.534 C 197.670 91.239,196.315 90.794,195.358 90.544 C 194.400 90.294,192.747 89.845,191.683 89.547 C 190.619 89.249,188.965 88.796,188.008 88.541 C 184.530 87.613,182.979 86.686,182.979 85.533 C 182.979 84.954,182.723 84.143,182.411 83.730 C 182.098 83.317,181.837 82.533,181.830 81.989 C 181.824 81.444,181.563 80.661,181.250 80.248 C 180.938 79.835,180.677 79.212,180.670 78.864 C 180.624 76.488,173.962 69.230,169.405 66.592 C 164.358 63.670,161.343 62.888,155.126 62.888 C 147.784 62.888,142.660 64.611,137.367 68.859 C 130.111 74.681,127.092 80.749,126.553 90.587 C 126.417 93.070,126.219 95.176,126.112 95.268 C 126.006 95.361,124.644 96.202,123.086 97.138 C 121.529 98.074,119.788 99.142,119.218 99.512 C 118.648 99.882,117.933 100.305,117.629 100.451 C 117.010 100.748,113.367 103.080,112.766 103.563 C 112.553 103.734,111.944 104.092,111.412 104.359 C 110.880 104.626,109.923 105.188,109.284 105.609 C 108.646 106.030,107.732 106.579,107.253 106.828 C 106.775 107.077,106.383 107.427,106.383 107.606 C 106.383 107.784,106.192 107.930,105.958 107.930 C 105.512 107.930,100.921 110.628,100.572 111.094 C 100.462 111.242,99.939 111.554,99.412 111.786 C 98.884 112.018,96.712 113.323,94.584 114.686 C 91.054 116.948,86.906 119.527,83.233 121.743 C 81.269 122.928,79.973 122.855,78.394 121.469 C 76.685 119.968,75.020 119.293,72.152 118.937 C 70.830 118.773,69.385 118.316,68.784 117.872 C 67.494 116.918,58.172 117.107,56.199 118.127 C 55.603 118.435,54.289 118.811,53.278 118.963 C 52.268 119.114,51.346 119.392,51.230 119.580 C 51.113 119.769,50.707 119.923,50.327 119.923 C 49.947 119.923,49.321 120.271,48.936 120.696 C 48.551 121.122,48.076 121.470,47.880 121.470 C 46.413 121.470,39.631 128.215,38.256 131.042 C 37.817 131.945,37.298 132.783,37.104 132.903 C 36.910 133.023,36.750 133.438,36.750 133.825 C 36.750 134.212,36.489 134.745,36.170 135.010 C 35.851 135.275,35.610 136.036,35.635 136.701 C 35.663 137.471,35.742 137.630,35.850 137.137 C 35.944 136.712,36.261 135.841,36.555 135.203 C 36.848 134.565,37.188 133.781,37.310 133.462 C 37.433 133.143,37.877 132.360,38.298 131.721 C 38.719 131.083,39.185 130.300,39.334 129.981 C 39.753 129.083,45.359 123.394,46.228 122.984 C 46.654 122.783,47.524 122.279,48.162 121.863 C 50.261 120.497,52.321 119.552,53.735 119.309 C 54.500 119.177,55.872 118.826,56.783 118.529 C 59.018 117.800,66.968 117.794,68.394 118.519 C 68.969 118.811,70.397 119.172,71.567 119.320 C 72.737 119.469,74.304 119.917,75.048 120.316 C 75.793 120.715,76.758 121.206,77.192 121.409 C 77.626 121.611,78.213 122.056,78.497 122.397 C 79.518 123.628,84.373 122.594,85.042 121.003 C 85.113 120.834,85.358 120.696,85.588 120.696 C 85.817 120.696,87.287 119.826,88.855 118.762 C 90.423 117.698,91.849 116.828,92.023 116.828 C 92.198 116.828,93.028 116.349,93.870 115.764 C 95.545 114.598,95.562 114.587,99.937 111.912 C 101.605 110.892,103.433 109.756,103.999 109.387 C 104.566 109.018,105.377 108.536,105.803 108.317 C 106.228 108.098,108.056 106.966,109.865 105.803 C 111.673 104.639,113.501 103.508,113.926 103.289 C 114.352 103.069,115.158 102.588,115.717 102.219 C 116.276 101.849,117.625 101.025,118.715 100.387 C 119.804 99.749,120.696 99.096,120.696 98.936 C 120.696 98.777,120.888 98.646,121.122 98.646 C 121.426 98.646,125.976 95.924,126.546 95.401 C 126.571 95.377,126.728 93.356,126.895 90.909 C 127.366 83.973,127.842 82.244,130.720 77.024 C 133.037 72.823,137.293 68.945,142.673 66.136 C 148.962 62.852,159.458 62.229,164.470 64.842 C 165.034 65.136,165.774 65.377,166.114 65.377 C 166.453 65.377,166.731 65.540,166.731 65.738 C 166.731 65.936,167.123 66.220,167.602 66.369 C 169.995 67.113,177.950 73.777,177.950 75.038 C 177.950 75.260,178.472 76.163,179.110 77.044 C 179.749 77.925,180.271 78.933,180.271 79.284 C 180.271 79.635,180.466 80.118,180.704 80.356 C 180.942 80.594,181.277 81.456,181.447 82.271 C 182.266 86.180,184.047 88.505,186.267 88.564 C 186.692 88.575,187.824 88.832,188.781 89.135 C 193.157 90.521,195.991 91.307,196.592 91.302 C 196.952 91.298,197.348 91.460,197.472 91.660 C 197.596 91.861,198.502 92.146,199.486 92.293 C 200.469 92.441,201.727 92.798,202.281 93.087 C 202.835 93.376,203.747 93.613,204.308 93.615 C 204.869 93.616,205.826 93.877,206.435 94.195 C 207.045 94.513,207.979 94.780,208.511 94.789 C 209.043 94.798,209.913 95.054,210.445 95.358 C 210.977 95.662,211.885 95.917,212.463 95.924 C 213.041 95.932,214.085 96.179,214.784 96.474 C 215.482 96.768,216.838 97.216,217.795 97.469 C 221.584 98.469,221.418 98.504,222.989 96.363 C 224.373 94.478,229.285 89.749,229.859 89.749 C 230.011 89.749,230.884 89.248,231.799 88.637 C 232.714 88.025,233.897 87.394,234.429 87.235 C 234.961 87.076,235.571 86.816,235.783 86.657 C 235.996 86.498,236.816 86.252,237.605 86.109 C 238.393 85.967,239.525 85.598,240.119 85.288 C 241.642 84.493,250.652 84.492,252.359 85.286 C 253.030 85.598,254.275 86.021,255.126 86.227 C 258.922 87.144,262.106 88.914,265.126 91.783 C 267.124 93.682,267.915 93.842,269.159 92.599 C 269.450 92.308,269.851 92.070,270.050 92.070 C 270.250 92.070,271.134 91.547,272.015 90.909 C 272.896 90.271,273.756 89.749,273.926 89.749 C 274.097 89.749,274.984 89.247,275.899 88.634 C 276.814 88.021,278.172 87.188,278.917 86.783 C 279.662 86.379,281.016 85.569,281.927 84.984 C 282.838 84.399,284.318 83.540,285.215 83.076 C 286.113 82.611,287.456 81.816,288.201 81.309 C 288.946 80.802,289.903 80.228,290.329 80.033 C 290.754 79.838,291.566 79.377,292.132 79.008 C 293.946 77.826,299.443 74.497,301.079 73.591 C 301.950 73.108,302.934 72.476,303.265 72.186 C 303.597 71.896,304.260 71.539,304.739 71.393 C 305.218 71.247,305.609 70.984,305.609 70.809 C 305.609 70.634,306.001 70.383,306.480 70.252 C 308.728 69.636,309.268 68.644,309.527 64.658 C 309.819 60.163,310.640 56.954,312.510 52.998 C 313.666 50.552,318.274 44.491,318.980 44.489 C 319.206 44.488,319.902 43.943,320.527 43.278 C 321.152 42.613,322.447 41.690,323.404 41.228 C 324.362 40.766,325.928 39.968,326.886 39.454 C 332.719 36.323,344.246 36.710,350.097 40.233 C 350.416 40.425,351.286 40.856,352.031 41.190 C 354.032 42.088,360.530 48.022,360.538 48.958 C 360.540 49.182,360.986 49.966,361.530 50.699 C 362.837 52.462,363.876 54.849,364.219 56.879 C 364.372 57.786,364.739 59.106,365.034 59.813 C 365.755 61.539,365.750 68.673,365.026 70.876 C 364.726 71.788,364.358 73.143,364.207 73.888 C 364.057 74.632,363.801 75.416,363.639 75.629 C 363.477 75.841,363.212 76.451,363.050 76.983 C 362.889 77.515,362.258 78.677,361.649 79.567 C 361.040 80.456,360.540 81.327,360.537 81.501 C 360.517 82.902,350.943 90.522,349.203 90.522 C 349.014 90.522,348.311 90.772,347.641 91.078 C 345.717 91.955,343.517 92.537,341.006 92.836 L 338.685 93.112 341.199 93.166 C 343.607 93.217,345.740 92.717,348.447 91.466 C 349.135 91.148,350.354 90.588,351.155 90.222 C 356.992 87.550,363.523 79.633,364.629 73.888 C 364.773 73.143,365.139 72.047,365.443 71.451 C 366.214 69.943,365.966 60.106,365.095 57.640 C 364.757 56.683,364.192 54.916,363.841 53.713 C 363.489 52.511,362.846 51.205,362.411 50.812 C 361.976 50.419,361.303 49.487,360.917 48.743 C 359.790 46.574,353.285 40.619,352.042 40.619 C 351.627 40.619,350.976 40.286,350.595 39.879 C 348.294 37.419,337.274 35.905,332.108 37.340 M314.739 83.455 C 314.122 83.547,312.729 84.283,311.644 85.090 C 310.559 85.898,309.032 86.763,308.251 87.013 C 307.471 87.263,306.614 87.729,306.349 88.049 C 306.083 88.369,304.831 89.144,303.567 89.772 C 302.303 90.399,300.752 91.347,300.121 91.878 C 299.490 92.409,298.508 92.954,297.939 93.088 C 297.371 93.223,296.209 93.846,295.358 94.474 C 294.507 95.102,292.519 96.341,290.941 97.227 C 289.363 98.114,287.187 99.335,286.106 99.942 C 285.024 100.548,283.585 101.462,282.908 101.973 C 282.231 102.483,281.441 102.901,281.154 102.901 C 280.756 102.901,275.662 106.144,274.691 107.015 C 274.600 107.097,274.568 108.969,274.618 111.177 C 274.711 115.202,274.043 118.646,272.498 122.109 C 272.198 122.779,271.954 123.526,271.954 123.769 C 271.954 124.940,266.545 131.789,264.604 133.075 C 264.123 133.395,263.039 134.221,262.195 134.913 C 261.352 135.604,260.340 136.170,259.948 136.170 C 259.555 136.170,259.124 136.347,258.991 136.563 C 257.582 138.843,246.047 140.362,240.039 139.060 C 232.499 137.426,221.277 129.223,221.277 125.347 C 221.277 125.160,221.052 124.777,220.778 124.496 C 220.193 123.895,219.125 121.075,218.753 119.149 C 217.843 114.428,216.971 113.303,213.692 112.620 C 211.042 112.068,207.940 111.161,207.019 110.668 C 206.591 110.439,205.782 110.251,205.222 110.251 C 204.663 110.251,203.824 110.045,203.359 109.793 C 202.895 109.541,201.818 109.212,200.967 109.061 C 200.116 108.910,198.854 108.594,198.162 108.359 C 197.471 108.123,196.339 107.740,195.648 107.508 C 194.956 107.276,193.346 106.854,192.070 106.571 C 188.332 105.742,186.479 105.237,185.770 104.853 C 182.290 102.970,179.989 103.102,179.105 105.235 C 178.843 105.867,178.488 106.383,178.316 106.383 C 178.143 106.383,177.905 106.688,177.786 107.060 C 177.541 107.832,172.737 112.959,172.259 112.959 C 172.087 112.959,171.512 113.360,170.983 113.849 C 169.935 114.817,167.386 116.258,166.151 116.580 C 165.725 116.691,164.159 117.231,162.669 117.780 C 157.927 119.528,149.403 119.139,145.395 116.991 C 144.830 116.689,144.047 116.433,143.654 116.424 C 142.844 116.405,141.414 115.576,137.190 112.676 L 134.241 110.652 132.422 111.806 C 131.422 112.440,130.319 112.959,129.972 112.959 C 129.626 112.959,128.920 113.412,128.404 113.965 C 127.888 114.519,126.509 115.462,125.338 116.062 C 124.168 116.662,122.611 117.602,121.878 118.151 C 121.146 118.700,120.362 119.153,120.138 119.158 C 119.913 119.162,119.294 119.519,118.762 119.951 C 117.073 121.320,114.928 122.631,114.373 122.631 C 114.079 122.631,113.249 123.155,112.528 123.796 C 111.808 124.438,110.435 125.348,109.478 125.820 C 108.520 126.291,107.201 127.070,106.546 127.551 C 105.891 128.031,104.498 128.879,103.451 129.435 C 102.404 129.992,101.460 130.581,101.354 130.745 C 101.077 131.173,98.165 132.689,97.620 132.689 C 97.369 132.689,97.105 132.826,97.034 132.993 C 96.963 133.161,95.680 134.107,94.184 135.095 C 90.496 137.531,90.008 138.106,90.511 139.429 C 91.222 141.300,91.008 149.509,90.194 151.572 C 89.103 154.338,88.531 155.996,88.299 157.060 C 88.183 157.592,87.591 158.599,86.984 159.298 C 86.377 159.997,85.880 160.785,85.880 161.050 C 85.880 161.869,79.550 167.644,77.536 168.662 C 76.487 169.192,75.280 169.908,74.855 170.252 C 73.813 171.096,71.739 171.760,70.143 171.760 C 69.423 171.760,68.209 172.021,67.445 172.340 C 65.623 173.102,59.185 173.095,57.060 172.329 C 56.209 172.023,55.039 171.769,54.461 171.766 C 53.548 171.761,51.440 170.929,49.516 169.815 C 49.197 169.630,48.240 169.104,47.389 168.647 C 45.705 167.741,40.026 162.372,39.429 161.122 C 39.226 160.696,38.716 159.826,38.296 159.188 C 37.876 158.549,37.430 157.766,37.304 157.447 C 37.178 157.128,36.882 156.431,36.646 155.899 C 34.541 151.144,34.086 145.015,35.399 139.072 L 35.655 137.911 34.988 139.072 C 34.020 140.754,33.980 150.140,34.933 151.838 C 35.292 152.476,35.586 153.444,35.588 153.988 C 35.589 154.532,35.846 155.316,36.158 155.729 C 36.470 156.142,36.731 156.769,36.738 157.123 C 36.782 159.394,45.895 169.439,47.912 169.439 C 48.126 169.439,48.558 169.696,48.872 170.011 C 49.619 170.758,53.162 172.147,54.319 172.147 C 54.817 172.147,55.873 172.418,56.665 172.749 C 58.379 173.465,66.757 173.375,68.665 172.621 C 69.304 172.368,70.817 172.060,72.029 171.936 C 74.106 171.723,75.022 171.253,77.643 169.057 C 77.900 168.842,78.222 168.665,78.358 168.665 C 79.007 168.665,81.240 167.366,81.260 166.977 C 81.272 166.735,82.142 165.882,83.194 165.081 C 84.246 164.280,85.106 163.366,85.106 163.050 C 85.106 162.734,85.267 162.476,85.463 162.476 C 85.961 162.476,88.975 157.786,88.975 157.011 C 88.975 156.661,89.235 155.876,89.553 155.267 C 89.871 154.657,90.132 153.786,90.133 153.330 C 90.134 152.874,90.379 152.407,90.676 152.293 C 91.885 151.829,92.435 142.176,91.445 138.791 C 91.121 137.682,96.507 133.494,99.621 132.433 C 100.607 132.097,101.509 131.573,101.626 131.269 C 101.743 130.966,103.078 130.109,104.594 129.365 C 106.110 128.622,107.530 127.778,107.750 127.490 C 107.970 127.202,108.804 126.693,109.603 126.359 C 110.402 126.025,111.789 125.154,112.685 124.422 C 113.580 123.691,115.073 122.890,116.001 122.642 C 117.055 122.360,117.757 121.928,117.871 121.489 C 117.976 121.087,119.255 120.202,120.872 119.414 C 122.421 118.658,123.787 117.783,123.907 117.470 C 124.027 117.157,124.684 116.778,125.367 116.628 C 126.050 116.478,127.339 115.682,128.232 114.860 C 131.551 111.800,135.210 111.623,138.685 114.355 C 140.541 115.814,142.463 116.828,143.374 116.828 C 143.740 116.828,144.314 117.066,144.650 117.356 C 147.822 120.101,160.441 120.139,165.543 117.421 C 166.090 117.129,167.311 116.603,168.256 116.252 C 169.201 115.901,170.496 115.104,171.134 114.480 C 171.772 113.857,172.451 113.346,172.643 113.346 C 173.201 113.346,177.950 108.270,177.950 107.673 C 177.950 107.376,178.203 107.035,178.512 106.917 C 178.821 106.798,179.430 106.099,179.864 105.363 C 180.726 103.901,182.064 103.818,184.670 105.065 C 185.762 105.588,189.221 106.498,191.876 106.962 C 192.621 107.092,193.839 107.431,194.584 107.715 C 195.329 108.000,196.983 108.526,198.259 108.884 C 199.536 109.242,201.387 109.783,202.373 110.087 C 203.359 110.390,204.551 110.638,205.021 110.638 C 205.492 110.638,206.339 110.880,206.904 111.175 C 208.286 111.897,212.031 112.959,213.193 112.959 C 213.709 112.959,214.731 113.281,215.464 113.674 C 216.827 114.405,216.919 114.605,218.246 119.729 C 218.467 120.580,218.890 121.825,219.188 122.496 C 219.486 123.166,219.729 123.822,219.729 123.954 C 219.729 124.086,220.208 124.930,220.793 125.830 C 221.378 126.730,221.944 127.663,222.050 127.903 C 223.168 130.425,229.794 135.792,234.429 137.929 C 241.001 140.960,255.276 140.611,258.994 137.329 C 259.420 136.953,260.201 136.514,260.729 136.353 C 261.258 136.192,262.378 135.519,263.219 134.858 C 264.744 133.658,265.064 133.384,267.164 131.490 C 268.435 130.343,272.340 124.804,272.340 124.149 C 272.340 123.910,272.598 123.166,272.912 122.496 C 274.489 119.132,275.048 116.349,275.051 111.845 L 275.054 107.350 278.063 105.319 C 279.718 104.202,281.210 103.288,281.380 103.288 C 281.549 103.288,282.587 102.693,283.687 101.966 C 284.787 101.239,286.209 100.416,286.847 100.137 C 287.485 99.859,288.801 99.084,289.770 98.415 C 290.740 97.746,291.958 97.069,292.478 96.911 C 292.998 96.753,294.312 95.960,295.398 95.150 C 296.484 94.340,298.103 93.481,298.996 93.240 C 299.889 93.000,300.726 92.527,300.856 92.189 C 300.985 91.851,302.331 91.002,303.846 90.302 C 305.361 89.602,306.918 88.679,307.305 88.251 C 307.693 87.822,308.558 87.352,309.228 87.207 C 309.897 87.061,311.252 86.268,312.239 85.444 C 314.442 83.605,315.772 83.498,317.180 85.047 C 317.731 85.653,318.704 86.478,319.342 86.881 C 319.981 87.284,321.211 88.147,322.077 88.799 C 322.943 89.450,324.249 90.205,324.979 90.475 C 325.709 90.745,326.828 91.209,327.466 91.507 C 329.570 92.487,332.074 93.144,334.429 93.333 C 336.950 93.535,336.460 93.353,331.555 92.266 C 329.974 91.916,328.325 91.380,327.891 91.076 C 327.456 90.771,326.805 90.522,326.444 90.522 C 325.815 90.522,323.421 89.416,323.018 88.939 C 322.911 88.813,321.867 88.047,320.696 87.237 C 319.526 86.427,317.995 85.181,317.293 84.468 C 316.591 83.755,315.982 83.198,315.939 83.230 C 315.896 83.262,315.356 83.363,314.739 83.455 M321.373 132.592 C 330.575 132.650,345.633 132.650,354.836 132.592 C 364.038 132.534,356.509 132.487,338.104 132.487 C 319.700 132.487,312.171 132.534,321.373 132.592 M303.064 133.211 C 302.953 133.498,302.918 134.934,302.984 136.402 L 303.104 139.072 303.293 135.879 C 303.481 132.692,303.441 132.226,303.064 133.211 M372.920 243.907 L 372.727 354.545 338.104 354.545 L 303.482 354.545 303.254 351.451 L 303.026 348.356 303.060 351.644 L 303.095 354.932 337.765 355.031 C 366.613 355.113,372.509 355.041,372.872 354.604 C 373.195 354.215,373.283 325.222,373.211 243.673 L 373.113 133.269 372.920 243.907 M302.620 153.965 C 302.620 154.923,302.695 155.314,302.788 154.836 C 302.880 154.357,302.880 153.574,302.788 153.095 C 302.695 152.616,302.620 153.008,302.620 153.965 M120.563 159.671 C 120.464 159.831,135.990 159.961,155.066 159.961 L 189.749 159.961 189.962 164.217 L 190.176 168.472 190.252 164.391 C 190.304 161.639,190.178 160.158,189.865 159.845 C 189.338 159.318,120.887 159.146,120.563 159.671 M120.018 257.273 C 119.944 332.249,120.028 354.302,120.387 354.662 C 120.879 355.154,188.450 355.377,189.717 354.891 C 190.218 354.699,190.316 354.049,190.257 351.313 L 190.185 347.969 189.967 351.257 L 189.749 354.545 155.126 354.545 L 120.503 354.545 120.308 257.447 L 120.114 160.348 120.018 257.273 M302.620 167.118 C 302.620 168.075,302.695 168.467,302.788 167.988 C 302.880 167.510,302.880 166.726,302.788 166.248 C 302.695 165.769,302.620 166.161,302.620 167.118 M302.641 181.238 C 302.643 182.727,302.713 183.289,302.797 182.487 C 302.881 181.684,302.879 180.465,302.794 179.779 C 302.708 179.092,302.640 179.749,302.641 181.238 M211.296 180.735 C 210.620 181.411,210.620 353.986,211.296 354.662 C 211.969 355.334,280.101 355.334,280.774 354.662 C 281.062 354.373,281.212 353.164,281.168 351.470 L 281.099 348.743 280.878 351.644 L 280.658 354.545 246.035 354.545 L 211.412 354.545 211.412 267.698 L 211.412 180.851 246.035 180.851 L 280.658 180.851 280.879 183.559 L 281.101 186.267 281.170 183.733 C 281.211 182.191,281.056 181.018,280.774 180.735 C 280.101 180.062,211.969 180.062,211.296 180.735 M302.645 194.971 C 302.645 196.567,302.713 197.220,302.796 196.422 C 302.880 195.624,302.880 194.318,302.796 193.520 C 302.713 192.722,302.645 193.375,302.645 194.971 M302.625 209.091 C 302.628 210.155,302.703 210.544,302.792 209.956 C 302.881 209.368,302.879 208.498,302.787 208.022 C 302.695 207.546,302.622 208.027,302.625 209.091 M28.492 214.990 C 28.392 215.150,29.731 215.234,31.467 215.176 C 36.890 214.997,37.503 214.833,33.002 214.765 C 30.620 214.729,28.591 214.831,28.492 214.990 M41.892 214.987 C 43.337 215.062,45.600 215.062,46.921 214.986 C 48.242 214.911,47.060 214.850,44.294 214.850 C 41.528 214.851,40.447 214.913,41.892 214.987 M55.624 214.987 C 56.963 215.063,59.052 215.062,60.267 214.986 C 61.482 214.909,60.387 214.847,57.834 214.848 C 55.280 214.849,54.286 214.911,55.624 214.987 M70.322 214.986 C 71.447 215.064,73.187 215.063,74.191 214.984 C 75.194 214.905,74.275 214.840,72.147 214.841 C 70.019 214.842,69.198 214.907,70.322 214.986 M83.269 214.985 C 84.279 215.064,85.933 215.064,86.944 214.985 C 87.955 214.905,87.128 214.840,85.106 214.840 C 83.085 214.840,82.258 214.905,83.269 214.985 M94.463 214.980 C 97.574 215.106,97.836 215.180,97.982 215.972 C 98.115 216.690,98.134 216.672,98.103 215.861 C 98.066 214.906,98.023 214.893,94.584 214.868 L 91.103 214.843 94.463 214.980 M28.042 284.333 C 28.042 321.035,28.088 336.049,28.143 317.698 C 28.199 299.347,28.199 269.318,28.143 250.967 C 28.088 232.616,28.042 247.631,28.042 284.333 M98.448 284.333 C 98.448 319.758,98.494 334.250,98.549 316.538 C 98.605 298.825,98.605 269.840,98.549 252.128 C 98.494 234.415,98.448 248.907,98.448 284.333 M302.620 222.437 C 302.620 223.395,302.695 223.786,302.788 223.308 C 302.880 222.829,302.880 222.045,302.788 221.567 C 302.695 221.088,302.620 221.480,302.620 222.437 M302.620 235.590 C 302.620 236.547,302.695 236.939,302.788 236.460 C 302.880 235.982,302.880 235.198,302.788 234.720 C 302.695 234.241,302.620 234.632,302.620 235.590 M302.612 248.549 C 302.616 249.400,302.696 249.703,302.788 249.222 C 302.881 248.741,302.877 248.044,302.780 247.674 C 302.683 247.305,302.608 247.698,302.612 248.549 M302.641 263.636 C 302.643 265.126,302.713 265.688,302.797 264.885 C 302.881 264.082,302.879 262.864,302.794 262.177 C 302.708 261.490,302.640 262.147,302.641 263.636 M302.612 277.563 C 302.616 278.414,302.696 278.717,302.788 278.235 C 302.881 277.754,302.877 277.058,302.780 276.688 C 302.683 276.318,302.608 276.712,302.612 277.563 M302.612 291.103 C 302.616 291.954,302.696 292.256,302.788 291.775 C 302.881 291.294,302.877 290.597,302.780 290.228 C 302.683 289.858,302.608 290.251,302.612 291.103 M302.620 304.449 C 302.620 305.406,302.695 305.798,302.788 305.319 C 302.880 304.840,302.880 304.057,302.788 303.578 C 302.695 303.100,302.620 303.491,302.620 304.449 M302.625 317.408 C 302.628 318.472,302.703 318.861,302.792 318.273 C 302.881 317.685,302.879 316.815,302.787 316.339 C 302.695 315.863,302.622 316.344,302.625 317.408 M302.645 331.915 C 302.645 333.511,302.713 334.163,302.796 333.366 C 302.880 332.568,302.880 331.262,302.796 330.464 C 302.713 329.666,302.645 330.319,302.645 331.915 M302.630 345.068 C 302.630 346.238,302.703 346.717,302.792 346.132 C 302.880 345.546,302.880 344.589,302.792 344.004 C 302.703 343.419,302.630 343.897,302.630 345.068 M97.934 353.095 L 97.872 354.739 63.282 354.739 C 40.045 354.739,28.627 354.609,28.495 354.342 C 28.386 354.124,28.343 354.168,28.398 354.439 C 28.478 354.834,35.447 354.952,63.196 355.031 C 101.326 355.140,98.472 355.326,98.155 352.745 C 98.012 351.578,97.990 351.612,97.934 353.095 " stroke="none" fill="#8f8f8f" fill-rule="evenodd"></path></g></svg>