<?xml version="1.0" encoding="UTF-8"?>
<!DOCTYPE svg PUBLIC "-//W3C//DTD SVG 1.1//EN" "http://www.w3.org/Graphics/SVG/1.1/DTD/svg11.dtd">
<svg xmlns="http://www.w3.org/2000/svg" version="1.1" viewBox="0 0 225 225" style="shape-rendering:geometricPrecision; text-rendering:geometricPrecision; image-rendering:optimizeQuality; fill-rule:evenodd; clip-rule:evenodd" xmlns:xlink="http://www.w3.org/1999/xlink">
<g><path style="opacity:1" fill="#201c35" d="M 61.5,26.5 C 101.168,26.3333 140.835,26.5 180.5,27C 195.97,33.4086 199.47,43.9086 191,58.5C 187.505,62.722 183.005,64.722 177.5,64.5C 177.667,88.5023 177.5,112.502 177,136.5C 173.58,138.125 170.413,140.125 167.5,142.5C 170.751,144.375 173.918,146.375 177,148.5C 177.667,158.5 177.667,168.5 177,178.5C 175.839,187.996 170.672,194.163 161.5,197C 122.167,197.667 82.8333,197.667 43.5,197C 34.0312,194.198 29.0312,187.864 28.5,178C 29.3508,167.315 35.0175,160.815 45.5,158.5C 46.3333,120.504 46.8333,82.5044 47,44.5C 48.3066,35.5044 53.14,29.5044 61.5,26.5 Z"/></g>
<g><path style="opacity:1" fill="#feb022" d="M 44.5,162.5 C 78.3375,162.168 112.004,162.502 145.5,163.5C 139.093,168.676 136.927,175.343 139,183.5C 140.302,187.274 142.469,190.441 145.5,193C 111.167,193.667 76.8333,193.667 42.5,193C 32.3738,187.283 29.8738,179.116 35,168.5C 37.5096,165.335 40.6763,163.335 44.5,162.5 Z"/></g>
<g><path style="opacity:1" fill="#67492e" d="M 44.5,162.5 C 78.3357,161.17 112.336,161.17 146.5,162.5C 146.376,163.107 146.043,163.44 145.5,163.5C 112.004,162.502 78.3375,162.168 44.5,162.5 Z"/></g>
<g><path style="opacity:1" fill="#4b372f" d="M 78.5,60.5 C 111.329,61.4983 144.329,61.8316 177.5,61.5C 144.331,62.8301 110.998,62.8301 77.5,61.5C 77.6236,60.8933 77.9569,60.56 78.5,60.5 Z"/></g>
<g><path style="opacity:1" fill="#fbc437" d="M 71.5,31.5 C 79.8885,34.6065 83.3885,40.6065 82,49.5C 79.4017,57.4249 73.9017,61.5916 65.5,62C 64.1667,63 64.1667,64 65.5,65C 101.498,65.5 137.498,65.6667 173.5,65.5C 173.833,88.8429 173.5,112.176 172.5,135.5C 168.289,137.098 164.622,139.432 161.5,142.5C 164.961,145.069 168.628,147.403 172.5,149.5C 173.666,160.485 173.832,171.485 173,182.5C 168.973,192.08 161.807,195.58 151.5,193C 138.167,183 138.167,173 151.5,163C 153.833,162.667 156.167,162.333 158.5,162C 159.833,161 159.833,160 158.5,159C 125.835,158.5 93.1684,158.333 60.5,158.5C 60.3333,120.832 60.5,83.1652 61,45.5C 61.8691,38.7241 65.3691,34.0574 71.5,31.5 Z"/></g>
<g><path style="opacity:1" fill="#060731" d="M 126.5,132.5 C 134.167,132.5 141.833,132.5 149.5,132.5C 149.5,133.5 149.5,134.5 149.5,135.5C 141.833,135.5 134.167,135.5 126.5,135.5C 126.5,134.5 126.5,133.5 126.5,132.5 Z"/></g>
<g><path style="opacity:1" fill="#040530" d="M 74.5,132.5 C 87.8333,132.5 101.167,132.5 114.5,132.5C 114.5,133.5 114.5,134.5 114.5,135.5C 101.167,135.5 87.8333,135.5 74.5,135.5C 74.5,134.5 74.5,133.5 74.5,132.5 Z"/></g>
<g><path style="opacity:1" fill="#040530" d="M 74.5,110.5 C 99.5,110.5 124.5,110.5 149.5,110.5C 149.5,111.5 149.5,112.5 149.5,113.5C 124.5,113.5 99.5,113.5 74.5,113.5C 74.5,112.5 74.5,111.5 74.5,110.5 Z"/></g>
<g><path style="opacity:1" fill="#040530" d="M 74.5,88.5 C 99.5,88.5 124.5,88.5 149.5,88.5C 149.5,89.5 149.5,90.5 149.5,91.5C 124.5,91.5 99.5,91.5 74.5,91.5C 74.5,90.5 74.5,89.5 74.5,88.5 Z"/></g>
<g><path style="opacity:1" fill="#feb022" d="M 177.5,61.5 C 144.329,61.8316 111.329,61.4983 78.5,60.5C 85.4131,54.1785 87.2464,46.5118 84,37.5C 82.5422,35.04 80.7089,32.8734 78.5,31C 112.833,30.3333 147.167,30.3333 181.5,31C 190.532,35.0521 193.698,41.8854 191,51.5C 188.619,57.7161 184.119,61.0494 177.5,61.5 Z"/></g>
<g><path style="opacity:1" fill="#fcaf22" d="M 71.5,31.5 C 65.3691,34.0574 61.8691,38.7241 61,45.5C 60.5,83.1652 60.3333,120.832 60.5,158.5C 57.1667,158.5 53.8333,158.5 50.5,158.5C 50.3333,119.499 50.5,80.4986 51,41.5C 54.8312,31.8337 61.6645,28.5004 71.5,31.5 Z"/></g>
</svg>
