<svg width="40" height="40" viewBox="0 0 40 40" fill="none" xmlns="http://www.w3.org/2000/svg">
<rect width="40" height="40" rx="20" fill="#2C3A42" fill-opacity="0.05"/>
<path d="M21.6959 14.7177C21.2995 14.3332 21.2899 13.7001 21.6745 13.3037C22.0591 12.9073 22.6921 12.8977 23.0885 13.2823L27.1759 17.2478C27.37 17.4361 27.4795 17.695 27.4795 17.9655C27.4795 18.236 27.37 18.4949 27.1759 18.6832L23.0885 22.6487C22.6921 23.0333 22.0591 23.0237 21.6745 22.6273C21.2899 22.2309 21.2995 21.5979 21.6959 21.2133L24.0106 18.9675H18.0873C17.2589 18.9675 16.4703 19.2871 15.8935 19.8467C15.3177 20.4053 15 21.1564 15 21.933V25.502C15 26.0543 14.5523 26.502 14 26.502C13.4477 26.502 13 26.0543 13 25.502V21.933C13 20.6061 13.5436 19.34 14.5008 18.4112C15.457 17.4835 16.7477 16.9675 18.0873 16.9675H24.0148L21.6959 14.7177Z" fill="#2C3A42"/>
</svg>
