<svg width="32" height="32" viewBox="0 0 32 32" fill="none" xmlns="http://www.w3.org/2000/svg">
<path d="M27.8214 5.14544C27.7558 5.08022 27.6734 5.03448 27.5833 5.01329C27.4933 4.99211 27.3992 4.99631 27.3114 5.02544L4.31137 14.5254C4.21348 14.5653 4.13075 14.6352 4.07505 14.725C4.01935 14.8149 3.99356 14.92 4.00137 15.0254C4.00398 15.125 4.03567 15.2216 4.09253 15.3033C4.1494 15.3851 4.22895 15.4484 4.32137 15.4854L10.6514 17.9354C10.7281 17.9648 10.8107 17.9756 10.8924 17.9669C10.9741 17.9582 11.0525 17.9303 11.1214 17.8854L19.5214 11.8854C19.6235 11.8006 19.7551 11.7597 19.8873 11.7719C20.0195 11.7841 20.1415 11.8483 20.2264 11.9504C20.3112 12.0525 20.3521 12.1842 20.3399 12.3164C20.3277 12.4486 20.2635 12.5706 20.1614 12.6554L13.1614 19.4054C13.0656 19.5008 13.0117 19.6303 13.0114 19.7654V26.5254C13.0103 26.6354 13.0462 26.7424 13.1133 26.8295C13.1804 26.9166 13.2748 26.9785 13.3814 27.0054C13.487 27.0354 13.5996 27.029 13.7011 26.9873C13.8027 26.9456 13.8873 26.871 13.9414 26.7754L17.1114 21.3554C17.143 21.2996 17.1949 21.2581 17.2564 21.2394C17.3178 21.2208 17.384 21.2266 17.4414 21.2554L23.2714 24.4654C23.3395 24.503 23.4154 24.5242 23.4931 24.5274C23.5708 24.5305 23.6482 24.5154 23.7191 24.4834C23.7899 24.4513 23.8524 24.4032 23.9014 24.3428C23.9504 24.2824 23.9846 24.2114 24.0014 24.1354L28.0014 5.63544C28.0194 5.54511 28.0122 5.45155 27.9804 5.36508C27.9486 5.27862 27.8936 5.20261 27.8214 5.14544Z" fill="black"/>
</svg>
