<?xml version="1.0" standalone="no"?>
<!DOCTYPE svg PUBLIC "-//W3C//DTD SVG 20010904//EN"
 "http://www.w3.org/TR/2001/REC-SVG-20010904/DTD/svg10.dtd">
<svg version="1.0" xmlns="http://www.w3.org/2000/svg"
 width="512.000000pt" height="512.000000pt" viewBox="0 0 512.000000 512.000000"
 preserveAspectRatio="xMidYMid meet">

<g transform="translate(0.000000,512.000000) scale(0.100000,-0.100000)"
fill="#000000" stroke="none">
<path d="M570 5105 c-227 -45 -423 -207 -515 -424 -56 -135 -55 -99 -55 -1532
0 -1488 -4 -1400 77 -1569 39 -81 59 -108 137 -185 74 -74 107 -99 176 -132
168 -82 109 -78 1063 -78 l849 0 3 115 c4 144 25 207 97 285 l50 55 -296 0
-296 0 0 1276 0 1276 1053 -4 c1051 -4 1052 -4 1093 -25 22 -12 57 -40 77 -62
67 -75 67 -72 67 -766 0 -619 0 -622 21 -641 31 -28 66 -92 93 -170 35 -101
37 -104 56 -104 10 0 56 18 103 41 46 22 106 43 133 47 l49 7 0 1000 c0 1121
4 1050 -74 1210 -70 141 -179 248 -326 320 -162 80 -39 75 -1907 74 -1320 -1
-1676 -4 -1728 -14z m216 -239 c164 -76 180 -292 29 -398 -76 -54 -195 -47
-269 14 -55 45 -80 101 -81 179 0 56 4 73 30 114 34 55 64 80 121 100 57 21
112 18 170 -9z m665 12 c52 -15 117 -73 140 -122 24 -53 24 -139 0 -191 -10
-22 -36 -57 -59 -77 -154 -139 -406 -5 -378 201 19 141 160 230 297 189z
m-113 -1172 c54 -28 72 -109 37 -162 -34 -53 -54 -55 -455 -52 -356 3 -370 4
-397 24 -32 24 -53 78 -46 117 3 16 19 41 35 57 l30 30 384 0 c312 0 390 -3
412 -14z m0 -460 c54 -28 72 -109 37 -162 -33 -51 -55 -54 -440 -54 -387 0
-406 2 -442 56 -34 52 -15 131 39 161 35 19 769 18 806 -1z m2 -463 c36 -21
54 -55 53 -97 -1 -45 -18 -73 -56 -96 -30 -19 -53 -20 -402 -20 -354 0 -371 1
-403 20 -75 46 -75 155 0 197 17 9 117 12 401 13 336 0 382 -2 407 -17z m6
-477 c39 -39 45 -86 19 -136 -30 -59 -38 -60 -440 -60 -409 0 -419 2 -449 65
-20 41 -20 68 -1 105 30 59 34 59 453 60 l384 0 34 -34z"/>
<path d="M3735 2551 c-35 -15 -52 -43 -90 -145 -47 -125 -63 -152 -117 -187
-112 -75 -195 -75 -349 -3 -132 61 -149 59 -241 -34 -93 -93 -96 -109 -32
-244 44 -93 49 -110 49 -173 0 -60 -5 -81 -33 -138 -39 -78 -77 -105 -224
-158 -48 -17 -97 -42 -110 -56 -21 -23 -23 -33 -23 -133 0 -135 7 -144 138
-190 127 -45 163 -67 197 -121 76 -117 77 -195 4 -350 -61 -132 -59 -149 34
-241 92 -93 107 -95 243 -32 93 44 111 49 174 49 60 0 81 -5 138 -33 78 -39
105 -77 158 -224 44 -122 57 -132 177 -136 137 -5 152 6 207 154 48 129 60
147 117 185 112 74 194 75 350 4 133 -61 148 -59 240 33 93 92 95 107 32 243
-44 93 -49 111 -49 174 0 59 5 81 33 138 39 78 69 100 221 157 131 49 144 68
139 202 -4 120 -14 133 -136 177 -147 53 -185 80 -224 158 -28 57 -33 78 -33
138 0 62 6 81 49 174 63 136 61 151 -32 243 -93 93 -109 96 -244 32 -93 -44
-110 -49 -173 -49 -60 0 -81 5 -138 33 -78 39 -105 77 -158 224 -44 123 -57
132 -177 135 -53 2 -106 -1 -117 -6z m240 -646 c288 -60 505 -329 505 -625 0
-349 -291 -640 -640 -640 -349 0 -640 291 -640 640 0 237 141 465 350 569 139
68 279 87 425 56z"/>
<path d="M3698 1717 c-185 -64 -304 -219 -316 -414 -11 -197 108 -380 296
-454 83 -33 243 -33 324 -1 134 54 237 166 279 304 27 87 22 203 -11 290 -86
228 -345 352 -572 275z"/>
</g>
</svg>
