<?xml version="1.0" standalone="no"?>
<!DOCTYPE svg PUBLIC "-//W3C//DTD SVG 20010904//EN"
 "http://www.w3.org/TR/2001/REC-SVG-20010904/DTD/svg10.dtd">
<svg version="1.0" xmlns="http://www.w3.org/2000/svg"
 width="200.000000pt" height="200.000000pt" viewBox="0 0 200.000000 200.000000"
 preserveAspectRatio="xMidYMid meet">

<g transform="translate(0.000000,200.000000) scale(0.100000,-0.100000)"
fill="#000000" stroke="none">
<path d="M0 1000 l0 -1000 1000 0 1000 0 0 1000 0 1000 -1000 0 -1000 0 0
-1000z m1172 309 c44 -31 61 -73 56 -136 -9 -106 -112 -164 -208 -115 -109 54
-107 212 3 263 50 23 105 19 149 -12z m-304 -351 l-3 -373 -147 -3 -148 -3 0
226 0 225 -150 0 -150 0 0 150 0 150 300 0 300 0 -2 -372z m859 340 c-8 -18
-74 -175 -147 -348 -73 -173 -139 -327 -146 -342 l-15 -28 -164 0 c-90 0 -166
3 -168 8 -2 4 65 172 151 375 l155 367 173 0 174 0 -13 -32z"/>
</g>
</svg>
