<svg id="svg" version="1.1" xmlns="http://www.w3.org/2000/svg" xmlns:xlink="http://www.w3.org/1999/xlink" width="400" height="399.21875" viewBox="0, 0, 400,399.21875"><g id="svgg"><path id="path0" d="M266.223 161.335 C 265.817 162.324,265.861 300.759,266.267 301.166 C 266.702 301.601,309.122 301.601,309.557 301.166 C 309.992 300.730,310.203 163.783,309.770 162.115 L 309.440 160.839 287.975 160.736 C 267.813 160.639,266.494 160.675,266.223 161.335 M149.451 239.697 L 149.451 301.179 152.947 301.426 C 158.864 301.844,192.515 301.551,192.988 301.078 C 193.280 300.786,193.378 281.928,193.308 239.539 L 193.207 178.422 171.329 178.318 L 149.451 178.215 149.451 239.697 M207.876 191.485 C 207.158 192.203,207.174 300.712,207.892 301.172 C 208.467 301.541,244.093 301.755,248.453 301.416 L 251.351 301.191 251.250 246.200 L 251.149 191.209 229.754 191.105 C 213.445 191.027,208.244 191.117,207.876 191.485 M91.375 213.253 C 91.229 213.400,91.109 233.255,91.109 257.376 L 91.109 301.233 94.006 301.396 C 99.388 301.699,134.197 301.500,134.533 301.165 C 135.026 300.672,135.174 215.324,134.684 214.035 L 134.286 212.987 112.964 212.987 C 101.237 212.987,91.522 213.107,91.375 213.253 " stroke="none" fill="#11d211" fill-rule="evenodd"></path><path id="path1" d="M0.000 199.800 L 0.000 399.600 200.000 399.600 L 400.000 399.600 400.000 199.800 L 400.000 0.000 200.000 0.000 L 0.000 0.000 0.000 199.800 M355.644 56.367 C 355.644 57.014,355.465 57.542,355.245 57.542 C 355.025 57.542,354.845 56.902,354.845 56.120 C 354.845 55.274,355.007 54.798,355.245 54.945 C 355.465 55.081,355.644 55.721,355.644 56.367 M358.085 59.543 C 358.237 60.091,358.380 61.460,358.402 62.585 C 358.424 63.711,358.801 65.757,359.241 67.133 C 360.318 70.503,360.526 336.467,359.453 337.886 C 359.114 338.334,358.861 339.554,358.854 340.776 C 358.837 343.545,357.732 348.942,357.078 349.451 C 356.796 349.670,356.435 350.715,356.276 351.772 C 356.111 352.871,355.739 353.789,355.405 353.917 C 355.084 354.040,354.481 354.883,354.064 355.791 C 353.648 356.700,352.933 357.707,352.477 358.030 C 352.021 358.354,351.648 358.836,351.648 359.102 C 351.648 359.369,351.289 359.701,350.850 359.840 C 350.411 359.979,349.947 360.511,349.819 361.022 C 349.668 361.622,349.203 362.027,348.507 362.167 C 347.914 362.285,346.931 362.844,346.321 363.409 C 345.712 363.974,344.891 364.436,344.496 364.436 C 344.101 364.436,343.390 364.773,342.915 365.185 C 342.344 365.680,340.665 366.150,337.962 366.572 C 335.714 366.923,333.812 367.395,333.737 367.621 C 333.545 368.196,66.455 368.196,66.263 367.621 C 66.188 367.395,64.286 366.923,62.038 366.572 C 59.335 366.150,57.656 365.680,57.085 365.185 C 56.610 364.773,55.899 364.436,55.504 364.436 C 55.109 364.436,54.288 363.974,53.679 363.409 C 53.069 362.844,52.086 362.285,51.493 362.167 C 50.797 362.027,50.332 361.622,50.181 361.022 C 50.053 360.511,49.589 359.979,49.150 359.840 C 48.711 359.701,48.352 359.369,48.352 359.102 C 48.352 358.836,47.979 358.354,47.523 358.030 C 47.067 357.707,46.352 356.700,45.936 355.791 C 45.519 354.883,44.910 354.038,44.583 353.912 C 44.221 353.773,43.882 352.883,43.717 351.633 C 43.567 350.505,43.221 349.497,42.948 349.392 C 42.675 349.287,42.341 348.538,42.205 347.728 C 42.069 346.917,41.847 345.849,41.712 345.355 C 41.224 343.576,44.190 344.123,46.556 346.247 C 47.654 347.233,48.755 348.042,49.004 348.046 C 49.253 348.049,49.551 348.412,49.666 348.851 C 49.792 349.333,50.211 349.650,50.722 349.650 C 51.257 349.650,51.708 350.018,51.948 350.649 C 52.181 351.261,52.642 351.648,53.137 351.648 C 53.582 351.648,54.275 351.977,54.677 352.379 C 55.079 352.781,56.374 353.426,57.555 353.812 C 58.736 354.199,59.922 354.814,60.189 355.180 C 60.640 355.797,70.321 355.853,195.472 355.969 C 329.774 356.093,340.060 356.028,340.060 355.065 C 340.060 354.596,343.502 353.247,344.701 353.247 C 345.006 353.247,345.255 352.973,345.255 352.637 C 345.255 352.284,345.744 351.930,346.421 351.795 C 347.202 351.638,347.664 351.255,347.820 350.634 C 347.962 350.069,348.405 349.656,348.952 349.578 C 349.515 349.498,349.896 349.129,349.973 348.589 C 350.048 348.065,350.478 347.632,351.072 347.483 C 351.684 347.329,352.048 346.951,352.048 346.469 C 352.048 346.046,352.391 345.459,352.810 345.166 C 353.229 344.872,353.883 343.681,354.263 342.520 C 354.643 341.358,355.244 340.118,355.599 339.763 C 356.189 339.172,356.252 327.293,356.348 198.701 C 356.445 66.908,356.493 58.293,357.129 58.415 C 357.502 58.487,357.932 58.994,358.085 59.543 M293.643 99.633 C 294.831 99.911,295.948 100.435,296.161 100.815 C 296.371 101.191,296.860 101.499,297.247 101.499 C 297.634 101.499,298.479 102.013,299.125 102.642 C 299.771 103.270,300.692 103.908,301.171 104.058 C 301.705 104.226,302.142 104.787,302.301 105.508 C 302.443 106.154,303.016 107.044,303.576 107.483 C 304.328 108.075,304.648 108.779,304.806 110.186 C 304.925 111.239,305.300 112.293,305.647 112.548 C 306.884 113.456,306.531 122.677,305.260 122.677 C 305.117 122.677,304.901 123.417,304.780 124.320 C 304.646 125.318,304.155 126.386,303.529 127.039 C 302.961 127.631,302.498 128.315,302.498 128.560 C 302.498 129.017,297.634 133.467,297.134 133.467 C 296.980 133.467,295.867 133.934,294.660 134.504 C 291.873 135.823,282.464 135.865,281.029 134.565 C 280.604 134.181,280.001 133.865,279.689 133.864 C 279.103 133.862,278.318 133.397,275.141 131.170 L 273.290 129.872 270.811 131.260 C 269.447 132.023,267.591 133.010,266.686 133.452 C 265.781 133.894,264.815 134.528,264.539 134.860 C 264.264 135.193,263.691 135.465,263.266 135.465 C 262.841 135.465,261.919 136.003,261.217 136.661 C 260.515 137.320,259.647 137.859,259.290 137.860 C 258.932 137.861,258.439 138.104,258.193 138.400 C 257.948 138.696,256.982 139.275,256.046 139.687 C 255.111 140.100,254.256 140.553,254.146 140.695 C 254.036 140.836,253.137 141.360,252.148 141.858 C 251.159 142.357,250.260 142.891,250.150 143.045 C 250.040 143.199,249.610 143.511,249.195 143.737 C 248.553 144.088,248.430 144.677,248.366 147.699 C 248.325 149.651,248.095 151.608,247.856 152.048 C 247.186 153.276,246.155 155.725,246.147 156.104 C 246.144 156.291,245.604 157.052,244.949 157.796 C 244.293 158.540,243.756 159.395,243.756 159.695 C 243.756 159.994,243.522 160.240,243.235 160.240 C 242.948 160.240,242.027 160.869,241.187 161.638 C 240.347 162.408,239.495 163.037,239.294 163.037 C 239.093 163.037,238.441 163.384,237.846 163.807 C 234.467 166.212,224.185 165.971,220.051 163.391 C 218.046 162.140,214.131 158.334,213.416 156.943 C 213.106 156.339,212.703 155.844,212.520 155.844 C 212.337 155.844,212.188 155.495,212.188 155.069 C 212.188 154.642,212.008 154.182,211.788 154.046 C 211.568 153.910,211.389 153.371,211.389 152.847 C 211.389 152.324,211.209 151.784,210.989 151.648 C 210.769 151.513,210.589 150.879,210.589 150.240 C 210.589 148.865,210.059 148.529,206.793 147.832 C 205.475 147.551,204.216 147.201,203.996 147.054 C 203.776 146.907,202.517 146.559,201.199 146.279 C 198.940 145.800,197.641 145.379,196.172 144.648 C 195.825 144.475,194.332 144.205,192.855 144.046 C 191.378 143.888,189.922 143.511,189.619 143.208 C 188.905 142.494,188.244 142.508,187.963 143.242 C 187.839 143.563,187.395 143.935,186.976 144.068 C 186.557 144.201,186.214 144.531,186.214 144.801 C 186.214 145.691,181.173 150.250,180.189 150.250 C 179.798 150.250,179.240 150.487,178.950 150.776 C 176.983 152.737,164.854 152.837,164.110 150.898 C 163.997 150.604,163.311 150.245,162.586 150.100 C 161.861 149.955,160.776 149.365,160.174 148.789 C 158.791 147.464,156.621 147.664,155.390 149.230 C 154.929 149.816,154.180 150.250,153.631 150.250 C 153.106 150.250,152.500 150.577,152.286 150.977 C 152.072 151.377,151.167 151.945,150.274 152.240 C 149.382 152.534,148.651 152.997,148.651 153.268 C 148.651 153.792,147.783 154.246,146.781 154.246 C 146.448 154.246,145.671 154.785,145.055 155.445 C 144.392 156.154,143.530 156.643,142.943 156.643 C 142.318 156.643,141.881 156.914,141.760 157.375 C 141.638 157.840,140.892 158.297,139.715 158.626 C 138.696 158.911,137.862 159.383,137.862 159.674 C 137.862 159.965,137.248 160.319,136.498 160.459 C 135.748 160.600,134.799 161.027,134.390 161.409 C 133.981 161.790,133.174 162.411,132.598 162.789 C 131.686 163.386,131.577 163.677,131.758 165.030 C 132.138 167.864,131.465 174.194,130.703 174.946 C 130.325 175.319,129.799 176.378,129.534 177.299 C 129.234 178.345,128.757 179.067,128.263 179.224 C 127.818 179.365,127.473 179.828,127.473 180.284 C 127.473 180.751,127.142 181.180,126.692 181.298 C 126.263 181.410,125.629 181.933,125.284 182.459 C 124.939 182.986,124.401 183.417,124.087 183.417 C 123.774 183.417,123.058 183.843,122.495 184.364 C 121.767 185.039,120.787 185.390,119.090 185.582 C 117.780 185.730,116.602 186.023,116.472 186.232 C 114.946 188.701,101.474 184.625,99.008 180.948 C 98.666 180.438,98.052 179.651,97.644 179.200 C 96.631 178.080,95.904 176.756,95.904 176.029 C 95.904 175.697,95.724 175.425,95.504 175.425 C 95.285 175.425,95.105 174.896,95.105 174.249 C 95.105 173.603,94.925 172.963,94.705 172.827 C 94.180 172.503,94.180 164.360,94.705 164.036 C 94.925 163.900,95.105 163.356,95.105 162.826 C 95.105 159.264,102.656 151.449,106.097 151.449 C 106.865 151.449,107.493 151.291,107.493 151.097 C 107.493 149.970,114.385 149.089,117.022 149.879 C 117.934 150.152,118.681 150.618,118.681 150.912 C 118.681 151.270,119.204 151.449,120.247 151.449 C 122.115 151.449,123.075 151.767,123.083 152.390 C 123.100 153.631,123.750 153.969,125.031 153.402 C 125.715 153.099,126.274 152.716,126.274 152.550 C 126.274 152.384,126.463 152.248,126.695 152.248 C 126.927 152.248,128.176 151.528,129.471 150.649 C 130.765 149.770,131.932 149.051,132.063 149.051 C 132.194 149.051,132.519 148.867,132.784 148.643 C 133.357 148.160,137.952 145.226,139.660 144.254 C 140.320 143.878,142.837 142.347,145.255 140.852 C 147.672 139.356,150.054 137.937,150.546 137.698 C 151.039 137.458,151.444 137.128,151.445 136.963 C 151.447 136.798,151.715 136.663,152.040 136.663 C 152.756 136.663,152.945 135.834,153.179 131.661 C 153.351 128.585,153.805 127.075,155.337 124.475 C 156.500 122.502,158.408 120.280,158.938 120.280 C 159.211 120.280,159.658 119.920,159.933 119.481 C 160.207 119.041,160.658 118.681,160.935 118.681 C 161.212 118.681,161.439 118.501,161.439 118.282 C 161.439 118.062,161.798 117.882,162.238 117.882 C 162.677 117.882,163.037 117.731,163.037 117.547 C 163.037 117.069,164.898 116.284,166.029 116.284 C 166.555 116.284,167.097 116.104,167.233 115.884 C 167.370 115.661,169.227 115.485,171.429 115.485 C 173.630 115.485,175.487 115.661,175.624 115.884 C 175.760 116.104,176.302 116.284,176.828 116.284 C 177.960 116.284,179.820 117.069,179.820 117.547 C 179.820 117.731,180.113 117.882,180.471 117.882 C 181.028 117.882,182.568 119.013,185.015 121.218 C 186.588 122.635,188.280 125.762,189.376 129.277 C 189.878 130.888,191.133 131.868,192.692 131.868 C 193.091 131.868,193.730 132.030,194.111 132.229 C 194.493 132.427,195.614 132.804,196.603 133.067 C 197.592 133.330,198.714 133.707,199.095 133.905 C 199.477 134.103,200.231 134.266,200.770 134.266 C 201.310 134.266,201.862 134.446,201.998 134.665 C 202.134 134.885,202.763 135.065,203.397 135.065 C 204.030 135.065,204.659 135.245,204.795 135.465 C 204.931 135.684,205.560 135.864,206.194 135.864 C 206.827 135.864,207.444 136.024,207.565 136.220 C 207.686 136.415,208.416 136.685,209.187 136.819 C 209.958 136.953,211.200 137.170,211.946 137.302 C 213.211 137.524,213.497 137.348,216.188 134.689 C 218.926 131.983,221.458 130.270,222.719 130.270 C 223.033 130.270,223.385 130.024,223.500 129.724 C 223.971 128.498,235.365 128.456,235.365 129.681 C 235.365 129.978,236.076 130.320,237.027 130.480 C 237.942 130.635,239.105 131.176,239.612 131.683 C 240.119 132.190,240.890 132.718,241.325 132.857 C 241.761 132.995,242.225 133.449,242.358 133.866 C 242.581 134.569,243.566 134.582,244.156 133.890 C 244.266 133.761,245.210 133.225,246.254 132.699 C 247.298 132.173,248.152 131.591,248.152 131.406 C 248.152 131.220,248.511 131.069,248.951 131.069 C 249.391 131.069,249.750 130.910,249.750 130.716 C 249.750 130.522,250.065 130.260,250.450 130.134 C 251.188 129.892,252.310 129.245,258.253 125.630 C 260.280 124.397,262.567 123.028,263.337 122.587 C 264.106 122.146,265.213 121.446,265.796 121.032 C 266.379 120.618,266.977 120.280,267.123 120.280 C 268.001 120.280,268.725 118.697,268.992 116.196 C 269.156 114.668,269.458 113.209,269.664 112.953 C 269.871 112.697,270.165 111.729,270.318 110.801 C 270.471 109.873,270.940 108.676,271.362 108.141 C 271.783 107.605,272.128 107.051,272.128 106.909 C 272.128 106.381,274.343 103.896,274.813 103.896 C 275.081 103.896,275.700 103.357,276.187 102.697 C 276.675 102.038,277.415 101.499,277.833 101.499 C 278.251 101.499,278.892 101.150,279.257 100.724 C 280.547 99.218,289.092 98.570,293.643 99.633 M310.090 160.231 C 310.733 160.638,311.275 287.500,310.677 297.602 L 310.411 302.098 287.915 302.098 L 265.419 302.098 265.105 300.400 C 264.685 298.128,264.590 164.249,265.008 163.991 C 265.188 163.880,265.335 163.020,265.335 162.081 C 265.335 161.142,265.455 160.253,265.601 160.107 C 266.027 159.680,309.410 159.802,310.090 160.231 M193.759 177.565 C 194.089 177.963,194.181 194.589,194.107 240.003 L 194.006 301.898 171.607 302.001 L 149.207 302.104 148.663 298.433 C 147.928 293.472,147.857 184.501,148.588 183.135 C 148.843 182.660,149.051 181.210,149.051 179.913 C 149.051 178.617,149.171 177.436,149.317 177.289 C 149.889 176.717,193.278 176.986,193.759 177.565 M251.964 192.308 C 252.442 195.019,252.623 298.985,252.151 299.458 C 251.929 299.679,251.748 300.365,251.748 300.982 L 251.748 302.105 229.271 302.001 L 206.793 301.898 206.485 298.302 C 206.079 293.557,206.299 191.755,206.717 191.109 C 206.969 190.719,211.941 190.609,229.352 190.609 L 251.664 190.609 251.964 192.308 M134.717 212.359 C 135.075 212.511,135.478 213.299,135.612 214.110 C 135.935 216.067,135.929 297.304,135.605 300.000 L 135.353 302.098 112.831 302.098 L 90.310 302.098 90.310 257.361 L 90.310 212.624 91.608 212.410 C 92.323 212.292,93.536 212.144,94.306 212.082 C 97.242 211.843,134.098 212.096,134.717 212.359 " stroke="none" fill="#fafafa" fill-rule="evenodd"></path><path id="path2" d="M354.845 56.120 C 354.845 56.902,355.025 57.542,355.245 57.542 C 355.465 57.542,355.644 57.014,355.644 56.367 C 355.644 55.721,355.465 55.081,355.245 54.945 C 355.007 54.798,354.845 55.274,354.845 56.120 M356.348 198.701 C 356.252 327.293,356.189 339.172,355.599 339.763 C 355.244 340.118,354.643 341.358,354.263 342.520 C 353.883 343.681,353.229 344.872,352.810 345.166 C 352.391 345.459,352.048 346.046,352.048 346.469 C 352.048 346.951,351.684 347.329,351.072 347.483 C 350.478 347.632,350.048 348.065,349.973 348.589 C 349.896 349.129,349.515 349.498,348.952 349.578 C 348.405 349.656,347.962 350.069,347.820 350.634 C 347.664 351.255,347.202 351.638,346.421 351.795 C 345.744 351.930,345.255 352.284,345.255 352.637 C 345.255 352.973,345.006 353.247,344.701 353.247 C 343.502 353.247,340.060 354.596,340.060 355.065 C 340.060 356.028,329.774 356.093,195.472 355.969 C 70.321 355.853,60.640 355.797,60.189 355.180 C 59.922 354.814,58.736 354.199,57.555 353.812 C 56.374 353.426,55.079 352.781,54.677 352.379 C 54.275 351.977,53.582 351.648,53.137 351.648 C 52.642 351.648,52.181 351.261,51.948 350.649 C 51.708 350.018,51.257 349.650,50.722 349.650 C 50.211 349.650,49.792 349.333,49.666 348.851 C 49.551 348.412,49.253 348.049,49.004 348.046 C 48.755 348.042,47.654 347.233,46.556 346.247 C 44.190 344.123,41.224 343.576,41.712 345.355 C 41.847 345.849,42.069 346.917,42.205 347.728 C 42.341 348.538,42.675 349.287,42.948 349.392 C 43.221 349.497,43.567 350.505,43.717 351.633 C 43.882 352.883,44.221 353.773,44.583 353.912 C 44.910 354.038,45.519 354.883,45.936 355.791 C 46.352 356.700,47.067 357.707,47.523 358.030 C 47.979 358.354,48.352 358.836,48.352 359.102 C 48.352 359.369,48.711 359.701,49.150 359.840 C 49.589 359.979,50.053 360.511,50.181 361.022 C 50.332 361.622,50.797 362.027,51.493 362.167 C 52.086 362.285,53.069 362.844,53.679 363.409 C 54.288 363.974,55.109 364.436,55.504 364.436 C 55.899 364.436,56.610 364.773,57.085 365.185 C 57.656 365.680,59.335 366.150,62.038 366.572 C 64.286 366.923,66.188 367.395,66.263 367.621 C 66.455 368.196,333.545 368.196,333.737 367.621 C 333.812 367.395,335.714 366.923,337.962 366.572 C 340.665 366.150,342.344 365.680,342.915 365.185 C 343.390 364.773,344.101 364.436,344.496 364.436 C 344.891 364.436,345.712 363.974,346.321 363.409 C 346.931 362.844,347.914 362.285,348.507 362.167 C 349.203 362.027,349.668 361.622,349.819 361.022 C 349.947 360.511,350.411 359.979,350.850 359.840 C 351.289 359.701,351.648 359.369,351.648 359.102 C 351.648 358.836,352.021 358.354,352.477 358.030 C 352.933 357.707,353.648 356.700,354.064 355.791 C 354.481 354.883,355.084 354.040,355.405 353.917 C 355.739 353.789,356.111 352.871,356.276 351.772 C 356.435 350.715,356.796 349.670,357.078 349.451 C 357.732 348.942,358.837 343.545,358.854 340.776 C 358.861 339.554,359.114 338.334,359.453 337.886 C 360.526 336.467,360.318 70.503,359.241 67.133 C 358.801 65.757,358.424 63.711,358.402 62.585 C 358.349 59.869,357.954 58.574,357.129 58.415 C 356.493 58.293,356.445 66.908,356.348 198.701 M282.318 99.500 C 281.230 99.777,281.211 99.807,282.118 99.825 C 282.667 99.835,283.477 99.689,283.916 99.500 C 284.901 99.077,283.982 99.077,282.318 99.500 M291.708 99.482 C 292.038 99.705,292.652 99.891,293.074 99.894 C 294.096 99.902,293.777 99.673,292.308 99.345 C 291.432 99.149,291.271 99.186,291.708 99.482 M279.313 100.509 C 278.542 101.438,279.012 101.537,280.126 100.681 C 280.866 100.112,280.953 99.916,280.469 99.909 C 280.111 99.904,279.591 100.174,279.313 100.509 M294.539 100.004 C 294.630 100.062,295.136 100.466,295.663 100.903 L 296.620 101.698 296.148 100.799 C 295.888 100.305,295.383 99.900,295.024 99.900 C 294.666 99.900,294.447 99.947,294.539 100.004 M276.139 102.797 L 275.204 104.096 276.561 102.897 C 277.307 102.238,277.994 101.653,278.087 101.598 C 278.179 101.543,277.989 101.499,277.664 101.499 C 277.339 101.499,276.653 102.083,276.139 102.797 M297.338 101.598 C 297.431 101.653,298.090 102.226,298.803 102.872 C 299.516 103.517,300.100 103.929,300.100 103.787 C 300.100 103.403,297.969 101.499,297.540 101.499 C 297.336 101.499,297.245 101.543,297.338 101.598 M273.227 105.273 C 272.622 106.031,272.128 106.781,272.128 106.940 C 272.128 107.099,271.853 107.534,271.516 107.905 C 270.804 108.693,269.983 111.227,270.555 110.873 C 270.761 110.746,270.930 110.338,270.931 109.966 C 270.932 109.410,272.379 107.230,274.627 104.396 C 274.845 104.121,274.866 103.896,274.674 103.896 C 274.483 103.896,273.831 104.516,273.227 105.273 M301.362 105.095 C 301.849 105.754,302.316 106.294,302.400 106.294 C 302.712 106.294,301.972 104.484,301.545 104.202 C 300.591 103.574,300.514 103.949,301.362 105.095 M302.937 107.393 C 303.240 107.887,303.626 108.292,303.792 108.292 C 303.959 108.292,304.096 108.641,304.096 109.067 C 304.096 109.494,304.302 109.970,304.554 110.126 C 304.880 110.328,304.928 110.077,304.721 109.251 C 304.561 108.615,304.400 108.091,304.363 108.088 C 304.326 108.086,303.866 107.726,303.340 107.288 L 302.384 106.494 302.937 107.393 M305.346 112.949 C 305.731 113.413,305.884 114.727,305.860 117.362 C 305.841 119.453,305.971 120.884,306.154 120.596 C 307.064 119.161,306.322 112.288,305.256 112.288 C 304.947 112.288,304.977 112.504,305.346 112.949 M268.908 116.883 C 268.691 119.288,268.741 119.804,269.152 119.393 C 269.274 119.271,269.317 118.117,269.249 116.829 L 269.125 114.486 268.908 116.883 M177.456 116.405 C 178.595 117.232,179.820 117.829,179.820 117.556 C 179.820 117.366,179.362 117.003,178.802 116.747 C 177.869 116.322,177.058 116.116,177.456 116.405 M180.619 118.036 C 180.619 118.121,181.114 118.508,181.718 118.897 L 182.817 119.604 182.056 118.743 C 181.382 117.981,180.619 117.606,180.619 118.036 M184.686 121.458 C 185.197 122.104,185.753 122.643,185.923 122.655 C 186.425 122.691,185.022 120.768,184.362 120.514 C 183.968 120.363,184.081 120.691,184.686 121.458 M156.645 122.476 C 156.129 123.025,155.783 123.540,155.876 123.622 C 155.968 123.704,156.462 123.255,156.973 122.625 C 158.118 121.214,157.916 121.123,156.645 122.476 M304.027 125.677 C 303.683 126.435,303.570 126.951,303.774 126.825 C 304.182 126.573,304.997 124.644,304.785 124.432 C 304.711 124.358,304.371 124.919,304.027 125.677 M230.669 129.051 C 232.372 129.194,233.982 129.526,234.246 129.790 C 234.882 130.426,235.365 130.398,235.365 129.725 C 235.365 129.094,232.732 128.640,229.615 128.732 C 227.936 128.781,228.123 128.838,230.669 129.051 M301.698 129.190 C 301.369 129.461,300.743 130.130,300.308 130.676 C 299.840 131.264,300.124 131.108,301.008 130.291 C 302.347 129.053,302.700 128.646,302.398 128.684 C 302.343 128.691,302.028 128.919,301.698 129.190 M223.643 129.337 C 223.183 129.797,223.352 130.270,223.976 130.270 C 224.306 130.270,224.575 130.102,224.575 129.897 C 224.575 129.691,225.070 129.449,225.674 129.357 C 226.601 129.217,226.549 129.181,225.341 129.131 C 224.554 129.098,223.790 129.191,223.643 129.337 M271.528 130.479 L 270.330 131.484 271.843 130.629 C 273.186 129.870,273.434 129.839,274.041 130.360 C 275.350 131.483,275.918 131.591,274.955 130.534 C 273.751 129.212,273.054 129.201,271.528 130.479 M236.563 130.651 C 236.893 130.874,237.444 131.059,237.787 131.063 C 238.130 131.066,238.804 131.436,239.285 131.884 C 239.766 132.332,240.160 132.516,240.160 132.293 C 240.160 131.739,238.619 130.820,237.163 130.505 C 236.284 130.315,236.124 130.354,236.563 130.651 M219.325 131.855 C 218.806 132.287,218.524 132.647,218.698 132.654 C 218.872 132.661,219.400 132.308,219.872 131.868 C 220.978 130.838,220.558 130.827,219.325 131.855 M298.302 132.268 C 297.904 132.707,297.347 133.067,297.065 133.067 C 296.782 133.067,296.450 133.230,296.327 133.429 C 295.869 134.169,297.666 133.357,298.537 132.430 C 299.034 131.901,299.347 131.469,299.232 131.469 C 299.118 131.469,298.699 131.828,298.302 132.268 M241.816 133.928 C 242.769 134.948,243.085 135.089,243.475 134.668 C 243.859 134.253,243.815 134.198,243.257 134.394 C 242.872 134.530,242.557 134.479,242.557 134.282 C 242.557 133.831,241.413 132.667,240.970 132.667 C 240.788 132.667,241.168 133.235,241.816 133.928 M280.919 134.371 C 281.249 134.698,282.058 135.073,282.717 135.205 C 283.865 135.433,283.873 135.425,282.917 135.013 C 282.368 134.777,281.558 134.402,281.119 134.180 C 280.410 133.822,280.387 133.844,280.919 134.371 M294.325 134.235 C 294.199 134.438,293.546 134.725,292.874 134.872 C 292.201 135.020,291.742 135.232,291.853 135.343 C 292.126 135.616,294.837 134.699,295.123 134.237 C 295.249 134.033,295.172 133.866,294.952 133.866 C 294.732 133.866,294.450 134.032,294.325 134.235 M260.722 136.691 C 260.577 136.927,260.071 137.275,259.599 137.465 C 259.014 137.701,258.944 137.820,259.379 137.837 C 259.729 137.851,260.341 137.502,260.739 137.063 C 261.137 136.623,261.355 136.264,261.224 136.264 C 261.093 136.264,260.867 136.456,260.722 136.691 M187.143 143.264 C 186.665 143.809,186.396 144.253,186.544 144.250 C 186.931 144.241,187.529 143.762,188.161 142.957 C 189.007 141.878,188.124 142.144,187.143 143.264 M189.411 143.049 C 189.411 143.546,191.114 143.987,192.076 143.738 C 192.575 143.609,192.465 143.534,191.732 143.503 C 191.140 143.477,190.545 143.277,190.410 143.057 C 190.092 142.544,189.411 142.538,189.411 143.049 M248.121 143.956 C 248.104 144.011,248.033 145.584,247.963 147.453 C 247.849 150.490,247.190 153.342,246.428 154.105 C 246.277 154.256,246.158 154.664,246.163 155.012 C 246.168 155.360,246.454 155.015,246.799 154.246 C 247.143 153.477,247.619 152.488,247.856 152.048 C 248.252 151.314,248.662 143.856,248.307 143.856 C 248.222 143.856,248.138 143.901,248.121 143.956 M138.262 145.091 C 137.598 145.633,137.531 145.769,138.062 145.495 C 139.365 144.821,140.088 144.268,139.660 144.271 C 139.441 144.272,138.811 144.641,138.262 145.091 M183.616 147.193 C 182.298 148.479,180.859 149.682,180.420 149.865 C 179.826 150.113,179.785 150.206,180.260 150.224 C 180.612 150.238,181.440 149.734,182.100 149.104 C 182.759 148.473,183.550 147.799,183.857 147.604 C 184.596 147.137,186.396 145.086,186.182 144.957 C 186.090 144.901,184.935 145.907,183.616 147.193 M198.002 145.455 C 198.138 145.674,198.643 145.842,199.124 145.826 C 199.969 145.799,199.971 145.786,199.201 145.455 C 198.101 144.982,197.710 144.982,198.002 145.455 M154.739 149.063 C 153.972 149.761,153.672 150.250,154.011 150.250 C 154.328 150.250,154.918 149.829,155.323 149.315 C 155.727 148.801,156.324 148.276,156.650 148.148 C 157.169 147.944,157.169 147.913,156.643 147.895 C 156.314 147.885,155.457 148.410,154.739 149.063 M160.174 148.758 C 160.936 149.588,162.637 150.491,162.637 150.066 C 162.637 150.006,161.873 149.458,160.939 148.848 L 159.241 147.740 160.174 148.758 M110.889 149.842 C 108.555 150.168,107.493 150.574,107.493 151.141 C 107.493 151.374,107.748 151.335,108.094 151.048 C 109.109 150.204,115.666 150.015,116.856 150.794 C 118.068 151.589,118.681 151.628,118.681 150.912 C 118.681 149.737,115.131 149.250,110.889 149.842 M210.589 150.426 C 210.589 150.962,210.737 151.492,210.917 151.604 C 211.097 151.715,211.166 151.276,211.071 150.628 C 210.862 149.200,210.589 149.086,210.589 150.426 M151.848 150.640 C 151.848 150.854,151.174 151.386,150.350 151.821 C 148.574 152.759,148.784 152.885,150.752 152.063 C 152.060 151.516,153.096 150.250,152.235 150.250 C 152.022 150.250,151.848 150.425,151.848 150.640 M164.112 150.903 C 164.854 152.837,176.986 152.734,178.950 150.776 C 179.656 150.072,179.463 150.109,177.517 151.049 C 175.191 152.173,167.515 152.212,165.355 151.110 C 164.333 150.589,163.968 150.528,164.112 150.903 M103.658 152.310 L 102.897 153.171 104.096 152.431 C 105.728 151.423,105.704 151.449,105.024 151.449 C 104.691 151.449,104.077 151.836,103.658 152.310 M121.339 152.027 C 122.031 152.329,122.804 152.906,123.056 153.311 C 123.454 153.949,123.479 153.915,123.242 153.047 C 122.911 151.835,122.393 151.458,121.079 151.470 C 120.136 151.479,120.150 151.510,121.339 152.027 M147.852 153.247 C 147.852 153.576,147.642 153.846,147.386 153.846 C 147.130 153.846,147.014 153.940,147.129 154.055 C 147.244 154.170,147.634 154.151,147.995 154.013 C 148.703 153.741,148.909 152.647,148.252 152.647 C 148.032 152.647,147.852 152.917,147.852 153.247 M144.597 155.238 C 144.080 155.784,143.387 156.247,143.057 156.268 C 142.678 156.293,142.633 156.378,142.935 156.501 C 143.597 156.770,144.952 155.984,145.459 155.036 C 146.029 153.972,145.732 154.041,144.597 155.238 M245.196 156.706 C 244.250 158.057,244.418 158.525,245.400 157.276 C 245.865 156.685,246.153 156.110,246.040 155.997 C 245.928 155.885,245.548 156.204,245.196 156.706 M141.459 157.059 C 141.459 157.288,140.694 157.828,139.760 158.259 C 138.173 158.991,138.945 158.952,140.959 158.198 C 141.714 157.916,142.286 156.643,141.658 156.643 C 141.548 156.643,141.459 156.831,141.459 157.059 M243.049 159.612 C 242.229 160.477,242.216 160.549,242.912 160.367 C 243.336 160.257,243.772 159.823,243.882 159.404 C 244.129 158.458,244.147 158.454,243.049 159.612 M265.596 160.140 C 265.428 160.412,282.062 160.407,302.098 160.130 C 306.384 160.071,299.966 159.981,287.836 159.931 C 275.706 159.881,265.698 159.975,265.596 160.140 M240.568 161.690 C 240.023 162.211,239.362 162.637,239.098 162.637 C 238.834 162.637,238.347 162.909,238.015 163.240 C 237.684 163.572,236.997 164.010,236.488 164.214 C 235.889 164.455,235.791 164.594,236.210 164.610 C 236.565 164.624,237.312 164.276,237.871 163.836 C 238.430 163.397,239.039 163.036,239.224 163.035 C 239.720 163.032,241.992 161.142,241.758 160.927 C 241.648 160.826,241.113 161.170,240.568 161.690 M217.782 161.838 C 218.289 162.278,218.794 162.637,218.904 162.637 C 219.015 162.637,218.779 162.278,218.382 161.838 C 217.984 161.399,217.479 161.039,217.260 161.039 C 217.040 161.039,217.275 161.399,217.782 161.838 M132.268 162.673 C 131.604 163.216,131.537 163.352,132.068 163.077 C 133.371 162.404,134.094 161.850,133.666 161.853 C 133.447 161.855,132.817 162.224,132.268 162.673 M220.579 163.636 C 221.324 164.186,222.213 164.634,222.555 164.633 C 222.897 164.632,222.458 164.188,221.578 163.647 C 219.495 162.363,218.845 162.356,220.579 163.636 M131.378 166.764 C 131.571 170.951,131.769 171.304,131.822 167.556 C 131.847 165.756,131.728 164.196,131.557 164.091 C 131.386 163.985,131.306 165.188,131.378 166.764 M264.821 164.136 C 264.465 164.795,264.525 297.153,264.881 298.302 C 265.115 299.053,265.264 274.186,265.282 231.668 C 265.298 194.361,265.237 163.836,265.147 163.836 C 265.056 163.836,264.910 163.971,264.821 164.136 M310.685 231.169 C 310.685 267.872,310.732 282.828,310.789 264.404 C 310.847 245.980,310.847 215.950,310.789 197.671 C 310.732 179.391,310.685 194.466,310.685 231.169 M226.279 165.322 C 226.887 165.414,227.786 165.411,228.277 165.316 C 228.769 165.221,228.272 165.146,227.173 165.149 C 226.074 165.152,225.672 165.230,226.279 165.322 M231.469 165.310 C 231.853 165.411,232.483 165.411,232.867 165.310 C 233.252 165.210,232.937 165.128,232.168 165.128 C 231.399 165.128,231.084 165.210,231.469 165.310 M131.069 172.028 C 131.069 172.577,130.930 173.027,130.760 173.027 C 130.590 173.027,130.019 174.296,129.491 175.848 C 128.956 177.419,128.207 178.842,127.802 179.059 C 127.401 179.273,127.073 179.707,127.073 180.024 C 127.073 180.340,126.533 180.878,125.874 181.219 C 125.215 181.560,124.675 182.011,124.675 182.223 C 124.675 182.434,124.091 182.856,123.377 183.161 C 121.707 183.873,119.917 185.415,120.760 185.415 C 121.091 185.415,121.847 184.965,122.440 184.416 C 123.033 183.866,123.774 183.417,124.087 183.417 C 124.401 183.417,124.939 182.986,125.284 182.459 C 125.629 181.933,126.263 181.410,126.692 181.298 C 127.142 181.180,127.473 180.751,127.473 180.284 C 127.473 179.828,127.818 179.365,128.263 179.224 C 128.757 179.067,129.234 178.345,129.534 177.299 C 129.799 176.378,130.342 175.303,130.742 174.910 C 131.395 174.267,131.834 171.029,131.269 171.029 C 131.159 171.029,131.069 171.479,131.069 172.028 M160.340 177.322 C 166.439 177.384,176.419 177.384,182.517 177.322 C 188.616 177.260,183.626 177.210,171.429 177.210 C 159.231 177.210,154.241 177.260,160.340 177.322 M193.920 179.620 C 193.923 180.719,194.001 181.121,194.093 180.514 C 194.185 179.907,194.182 179.007,194.087 178.516 C 193.993 178.025,193.917 178.521,193.920 179.620 M99.244 181.327 C 99.561 181.839,101.898 183.569,101.898 183.291 C 101.898 183.193,101.238 182.608,100.431 181.993 C 99.624 181.377,99.090 181.078,99.244 181.327 M148.416 183.516 C 147.978 184.878,148.151 296.452,148.594 298.102 C 148.833 298.994,148.984 278.319,149.010 241.059 C 149.033 208.916,148.973 182.617,148.878 182.617 C 148.783 182.617,148.575 183.022,148.416 183.516 M103.696 184.615 C 104.356 185.052,105.075 185.410,105.295 185.410 C 105.514 185.411,105.106 185.053,104.386 184.614 C 102.689 183.580,102.134 183.581,103.696 184.615 M116.484 185.814 C 116.348 186.034,114.584 186.250,112.564 186.295 L 108.891 186.376 112.281 186.513 C 114.145 186.587,116.034 186.470,116.477 186.252 C 116.920 186.034,117.642 185.777,118.082 185.681 C 118.676 185.552,118.605 185.495,117.806 185.461 C 117.214 185.435,116.619 185.594,116.484 185.814 M206.702 192.607 C 206.702 193.596,206.780 194.001,206.875 193.506 C 206.971 193.012,206.971 192.203,206.875 191.708 C 206.780 191.214,206.702 191.618,206.702 192.607 M251.948 246.553 C 251.948 275.742,252.083 299.541,252.248 299.439 C 252.636 299.199,252.629 194.554,252.242 193.944 C 252.080 193.691,251.948 217.365,251.948 246.553 M206.388 246.354 C 206.388 274.266,206.435 285.625,206.493 271.597 C 206.552 257.569,206.552 234.732,206.493 220.848 C 206.435 206.964,206.388 218.442,206.388 246.354 M96.404 212.074 C 97.008 212.166,97.997 212.166,98.601 212.074 C 99.206 211.983,98.711 211.908,97.502 211.908 C 96.294 211.908,95.799 211.983,96.404 212.074 M103.996 212.079 C 104.820 212.166,106.169 212.166,106.993 212.079 C 107.817 211.993,107.143 211.923,105.495 211.923 C 103.846 211.923,103.172 211.993,103.996 212.079 M112.987 212.077 C 113.701 212.166,114.870 212.166,115.584 212.077 C 116.299 211.989,115.714 211.916,114.286 211.916 C 112.857 211.916,112.273 211.989,112.987 212.077 M121.370 212.077 C 122.079 212.165,123.338 212.166,124.167 212.080 C 124.996 211.993,124.416 211.921,122.877 211.919 C 121.339 211.918,120.660 211.988,121.370 212.077 M129.570 212.064 C 129.955 212.164,130.584 212.164,130.969 212.064 C 131.354 211.963,131.039 211.881,130.270 211.881 C 129.500 211.881,129.186 211.963,129.570 212.064 M92.208 212.470 C 92.702 212.565,93.511 212.565,94.006 212.470 C 94.500 212.375,94.096 212.297,93.107 212.297 C 92.118 212.297,91.713 212.375,92.208 212.470 M132.767 212.463 C 133.152 212.564,133.781 212.564,134.166 212.463 C 134.550 212.363,134.236 212.281,133.467 212.281 C 132.697 212.281,132.383 212.363,132.767 212.463 M135.657 256.943 C 135.657 280.350,135.705 289.925,135.764 278.222 C 135.823 266.518,135.823 247.368,135.764 235.664 C 135.705 223.961,135.657 233.536,135.657 256.943 M206.708 299.900 C 206.711 300.999,206.788 301.401,206.880 300.794 C 206.972 300.186,206.970 299.287,206.875 298.796 C 206.780 298.304,206.705 298.801,206.708 299.900 M193.899 300.500 C 193.899 301.269,193.981 301.583,194.082 301.199 C 194.182 300.814,194.182 300.185,194.082 299.800 C 193.981 299.416,193.899 299.730,193.899 300.500 M357.642 339.860 C 357.642 340.482,357.416 340.859,357.043 340.859 C 356.324 340.859,356.256 340.007,356.923 339.341 C 357.585 338.679,357.642 338.721,357.642 339.860 M356.044 344.414 C 356.044 345.126,355.663 345.932,355.052 346.512 C 354.506 347.029,354.057 347.874,354.053 348.389 C 354.048 348.986,353.756 349.401,353.247 349.535 C 352.807 349.650,352.448 350.046,352.448 350.416 C 352.448 351.295,351.673 352.048,350.769 352.048 C 350.313 352.048,350.050 352.344,350.050 352.857 C 350.050 353.352,349.663 353.813,349.051 354.046 C 348.501 354.255,348.052 354.697,348.052 355.027 C 348.052 355.358,347.557 355.746,346.953 355.888 C 346.349 356.030,345.405 356.552,344.855 357.048 C 344.261 357.583,343.053 358.064,341.875 358.232 C 340.766 358.391,339.681 358.807,339.410 359.178 C 338.651 360.215,61.337 360.200,60.579 359.162 C 60.306 358.789,59.197 358.337,58.113 358.157 C 56.674 357.919,56.042 357.601,55.766 356.976 C 55.512 356.401,54.890 356.041,53.868 355.878 C 52.559 355.669,52.348 355.490,52.348 354.594 C 52.348 353.710,52.483 353.589,53.247 353.794 C 53.741 353.927,54.567 354.037,55.082 354.040 C 55.662 354.044,56.094 354.334,56.217 354.802 C 56.452 355.704,57.866 356.044,61.379 356.044 C 63.646 356.044,63.988 356.151,64.572 357.043 L 65.227 358.042 199.785 358.042 C 333.770 358.042,334.347 358.039,335.265 357.243 C 335.772 356.803,336.204 356.434,336.225 356.422 C 336.246 356.410,337.690 356.251,339.432 356.068 C 341.650 355.836,342.748 355.535,343.091 355.067 C 343.360 354.698,344.092 354.263,344.717 354.099 C 345.343 353.936,346.032 353.407,346.249 352.925 C 346.466 352.443,347.005 352.042,347.447 352.035 C 348.431 352.020,349.406 351.298,349.777 350.312 C 349.929 349.906,350.408 349.482,350.842 349.368 C 351.275 349.255,351.932 348.477,352.302 347.638 C 352.672 346.800,353.278 346.034,353.649 345.937 C 354.021 345.840,354.437 345.198,354.575 344.509 C 354.902 342.871,356.044 342.797,356.044 344.414 M52.250 352.747 C 52.340 353.022,52.127 353.356,51.776 353.491 C 51.039 353.774,49.847 352.938,50.192 352.379 C 50.513 351.860,52.048 352.134,52.250 352.747 " stroke="none" fill="#d0d0d0" fill-rule="evenodd"></path><path id="path3" d="M285.115 99.338 C 286.942 99.631,292.016 99.690,291.581 99.413 C 291.321 99.248,289.580 99.135,287.712 99.161 C 285.844 99.188,284.675 99.267,285.115 99.338 M293.740 100.021 C 293.831 100.088,294.446 100.458,295.105 100.844 L 296.304 101.546 295.360 100.723 C 294.841 100.270,294.227 99.900,293.995 99.900 C 293.763 99.900,293.648 99.955,293.740 100.021 M297.103 101.965 C 297.542 102.208,298.270 102.697,298.721 103.052 C 299.171 103.406,299.033 103.202,298.415 102.597 C 297.796 101.993,297.068 101.504,296.797 101.511 C 296.526 101.517,296.663 101.722,297.103 101.965 M273.709 105.594 C 272.967 106.528,272.675 107.039,273.062 106.729 C 273.789 106.145,275.501 103.896,275.219 103.896 C 275.131 103.896,274.451 104.660,273.709 105.594 M305.809 116.883 C 305.812 117.982,305.889 118.384,305.981 117.777 C 306.073 117.169,306.070 116.270,305.976 115.779 C 305.881 115.287,305.806 115.784,305.809 116.883 M169.930 115.776 C 170.754 115.862,172.103 115.862,172.927 115.776 C 173.751 115.689,173.077 115.619,171.429 115.619 C 169.780 115.619,169.106 115.689,169.930 115.776 M157.269 122.178 C 156.406 123.282,156.336 123.467,157.006 122.882 C 157.808 122.182,158.864 120.679,158.556 120.679 C 158.493 120.679,157.914 121.354,157.269 122.178 M185.823 122.884 C 185.828 123.100,186.184 123.726,186.613 124.276 C 187.043 124.825,187.413 125.544,187.435 125.874 C 187.461 126.259,187.546 126.301,187.671 125.993 C 187.778 125.728,187.405 124.832,186.840 124.002 C 186.276 123.171,185.818 122.668,185.823 122.884 M303.142 126.461 C 302.777 127.017,302.620 127.473,302.792 127.473 C 303.181 127.473,304.215 125.860,303.978 125.623 C 303.883 125.528,303.506 125.905,303.142 126.461 M188.967 130.141 C 189.125 130.733,189.474 131.260,189.742 131.313 C 190.010 131.365,190.045 131.317,189.820 131.205 C 189.595 131.094,189.411 130.668,189.411 130.260 C 189.411 129.852,189.246 129.416,189.045 129.292 C 188.832 129.160,188.800 129.516,188.967 130.141 M228.072 129.364 C 229.006 129.448,230.534 129.448,231.469 129.364 C 232.403 129.279,231.638 129.211,229.770 129.211 C 227.902 129.211,227.138 129.279,228.072 129.364 M272.077 129.735 C 271.575 130.342,271.605 130.351,272.428 129.838 C 273.199 129.358,273.455 129.358,274.226 129.838 C 275.049 130.351,275.078 130.342,274.576 129.735 C 274.275 129.370,273.712 129.071,273.327 129.071 C 272.941 129.071,272.379 129.370,272.077 129.735 M222.178 130.688 C 221.740 130.984,221.902 131.021,222.777 130.825 C 224.247 130.496,224.565 130.268,223.543 130.276 C 223.122 130.279,222.507 130.464,222.178 130.688 M237.762 131.352 C 238.092 131.474,238.676 131.847,239.061 132.182 C 239.446 132.517,239.760 132.648,239.760 132.474 C 239.760 131.991,238.440 131.092,237.762 131.113 C 237.229 131.130,237.229 131.157,237.762 131.352 M277.212 132.297 C 277.700 132.806,278.200 133.122,278.323 132.999 C 278.446 132.876,278.046 132.460,277.435 132.074 L 276.324 131.372 277.212 132.297 M215.802 135.277 C 213.850 137.310,213.107 137.840,212.442 137.673 L 211.588 137.458 212.429 137.895 C 213.175 138.283,213.581 138.013,216.041 135.499 C 217.565 133.942,218.698 132.667,218.560 132.667 C 218.422 132.667,217.181 133.842,215.802 135.277 M264.318 134.294 C 264.173 134.529,263.668 134.877,263.196 135.068 C 262.610 135.304,262.540 135.422,262.975 135.439 C 263.326 135.453,263.938 135.105,264.336 134.665 C 264.733 134.226,264.952 133.866,264.821 133.866 C 264.690 133.866,264.464 134.059,264.318 134.294 M283.317 135.059 C 283.646 135.275,284.351 135.455,284.882 135.458 C 286.164 135.467,285.839 135.239,284.116 134.923 C 283.132 134.743,282.895 134.783,283.317 135.059 M260.195 136.677 C 258.957 137.709,259.516 137.697,260.830 136.663 C 261.389 136.224,261.687 135.870,261.492 135.877 C 261.298 135.885,260.714 136.244,260.195 136.677 M253.846 140.306 C 252.484 141.178,252.043 141.764,253.247 141.102 C 254.164 140.598,255.600 139.488,255.345 139.480 C 255.235 139.477,254.560 139.848,253.846 140.306 M184.194 146.553 L 182.817 148.052 184.316 146.675 C 185.140 145.917,185.814 145.243,185.814 145.176 C 185.814 144.871,185.476 145.159,184.194 146.553 M199.833 145.598 C 199.925 145.677,200.539 145.862,201.199 146.010 C 202.074 146.206,202.236 146.169,201.798 145.872 C 201.259 145.507,199.433 145.252,199.833 145.598 M247.872 147.453 C 247.872 148.661,247.947 149.156,248.038 148.551 C 248.130 147.947,248.130 146.958,248.038 146.354 C 247.947 145.749,247.872 146.244,247.872 147.453 M157.243 147.456 C 156.622 147.726,156.769 147.787,157.903 147.728 C 158.706 147.686,159.280 147.517,159.178 147.353 C 158.946 146.975,158.268 147.011,157.243 147.456 M132.767 148.697 C 131.405 149.570,130.964 150.155,132.168 149.494 C 133.085 148.990,134.521 147.879,134.266 147.872 C 134.156 147.868,133.482 148.240,132.767 148.697 M154.408 148.699 C 153.989 149.164,153.287 149.692,152.847 149.872 C 152.177 150.146,152.160 150.203,152.741 150.224 C 153.122 150.238,154.021 149.716,154.739 149.063 C 155.457 148.410,155.847 147.870,155.606 147.864 C 155.366 147.857,154.826 148.233,154.408 148.699 M181.296 148.864 C 180.680 149.406,180.334 149.850,180.527 149.850 C 180.721 149.850,181.302 149.401,181.818 148.851 C 183.012 147.580,182.748 147.586,181.296 148.864 M209.590 148.330 C 210.030 148.579,210.522 148.978,210.683 149.217 C 210.885 149.515,210.979 149.499,210.983 149.165 C 210.986 148.898,210.641 148.493,210.216 148.266 C 209.164 147.703,208.589 147.762,209.590 148.330 M113.086 150.548 C 114.735 150.625,116.254 150.859,116.463 151.068 C 116.672 151.278,117.032 151.443,117.263 151.436 C 117.494 151.429,117.333 151.159,116.907 150.836 C 116.357 150.421,115.249 150.273,113.110 150.329 L 110.090 150.409 113.086 150.548 M151.085 150.806 C 150.831 151.112,150.084 151.586,149.424 151.859 C 148.765 152.132,148.304 152.434,148.400 152.529 C 148.679 152.808,151.848 151.073,151.848 150.641 C 151.848 150.103,151.629 150.150,151.085 150.806 M164.465 150.697 C 164.709 151.092,167.345 151.946,167.806 151.780 C 168.007 151.708,167.297 151.368,166.228 151.026 C 165.159 150.684,164.366 150.536,164.465 150.697 M105.095 151.866 C 104.657 152.163,104.819 152.200,105.694 152.004 C 107.164 151.675,107.483 151.447,106.460 151.455 C 106.039 151.458,105.425 151.643,105.095 151.866 M119.977 151.944 C 120.799 152.221,121.833 152.760,122.275 153.143 C 122.716 153.525,123.077 153.664,123.077 153.452 C 123.077 152.839,121.363 151.879,119.859 151.650 L 118.482 151.440 119.977 151.944 M125.874 153.083 C 125.211 153.625,125.143 153.761,125.674 153.487 C 126.978 152.813,127.700 152.260,127.273 152.263 C 127.053 152.264,126.424 152.633,125.874 153.083 M142.857 155.929 C 141.761 156.637,141.744 156.680,142.657 156.429 C 143.712 156.139,144.520 155.561,144.229 155.306 C 144.134 155.222,143.516 155.503,142.857 155.929 M245.255 156.058 C 244.257 157.393,244.386 157.765,245.400 156.476 C 245.865 155.886,246.180 155.340,246.100 155.263 C 246.020 155.186,245.639 155.544,245.255 156.058 M141.059 156.915 C 141.059 157.138,140.654 157.516,140.160 157.754 C 139.665 157.993,139.451 158.200,139.684 158.215 C 140.356 158.258,141.688 157.139,141.358 156.809 C 141.194 156.645,141.059 156.692,141.059 156.915 M242.936 159.289 C 242.178 160.085,241.918 160.517,242.358 160.250 C 243.079 159.811,244.792 157.842,244.453 157.842 C 244.376 157.842,243.693 158.493,242.936 159.289 M215.784 159.640 C 216.530 160.410,217.230 161.039,217.340 161.039 C 217.449 161.039,216.929 160.410,216.184 159.640 C 215.438 158.871,214.738 158.242,214.628 158.242 C 214.519 158.242,215.039 158.871,215.784 159.640 M310.199 162.238 C 310.199 163.227,310.277 163.631,310.372 163.137 C 310.467 162.642,310.467 161.833,310.372 161.339 C 310.277 160.844,310.199 161.249,310.199 162.238 M131.192 163.137 C 131.015 163.412,130.869 165.542,130.869 167.870 C 130.869 170.828,130.707 172.299,130.332 172.752 C 130.036 173.108,129.887 173.631,130.001 173.913 C 130.136 174.249,130.218 174.196,130.238 173.760 C 130.256 173.393,130.495 173.019,130.769 172.927 C 131.125 172.809,131.291 171.416,131.345 168.098 C 131.388 165.534,131.533 163.256,131.669 163.036 C 132.030 162.452,131.573 162.548,131.192 163.137 M237.019 163.450 C 236.500 163.882,236.248 164.236,236.458 164.236 C 236.669 164.236,237.255 163.876,237.762 163.437 C 238.954 162.403,238.261 162.415,237.019 163.450 M220.979 163.233 C 220.979 163.625,223.256 164.540,224.775 164.759 L 226.374 164.990 224.975 164.579 C 224.206 164.353,222.992 163.917,222.278 163.609 C 221.563 163.302,220.979 163.132,220.979 163.233 M233.167 164.654 C 232.610 164.906,232.852 164.942,233.966 164.773 C 234.845 164.639,235.639 164.463,235.731 164.383 C 236.074 164.080,233.934 164.306,233.167 164.654 M94.415 166.633 C 94.415 167.622,94.492 168.027,94.588 167.532 C 94.683 167.038,94.683 166.229,94.588 165.734 C 94.492 165.240,94.415 165.644,94.415 166.633 M94.306 171.005 C 94.306 171.652,94.448 172.269,94.622 172.376 C 94.796 172.483,94.866 171.955,94.778 171.201 C 94.582 169.521,94.306 169.407,94.306 171.005 M129.252 175.494 C 128.782 176.996,126.682 179.906,124.916 181.501 C 124.014 182.316,123.507 182.991,123.789 183.000 C 124.070 183.009,124.407 182.741,124.536 182.403 C 124.666 182.065,125.290 181.521,125.923 181.194 C 126.555 180.867,127.073 180.340,127.073 180.024 C 127.073 179.707,127.388 179.280,127.772 179.074 C 128.439 178.717,130.062 175.083,129.711 174.733 C 129.619 174.640,129.413 174.983,129.252 175.494 M194.001 240.360 C 194.001 272.887,194.048 286.135,194.106 269.799 C 194.164 253.463,194.164 226.850,194.106 210.658 C 194.048 194.466,194.001 207.832,194.001 240.360 M121.479 183.844 C 120.929 184.290,120.120 184.814,119.680 185.009 C 119.034 185.296,119.009 185.369,119.552 185.389 C 119.921 185.403,120.460 185.182,120.751 184.899 C 121.041 184.615,121.723 184.076,122.267 183.700 C 122.810 183.324,123.080 183.021,122.866 183.026 C 122.652 183.031,122.028 183.399,121.479 183.844 M206.787 246.154 C 206.787 274.835,206.835 286.568,206.893 272.228 C 206.951 257.887,206.951 234.421,206.893 220.080 C 206.835 205.739,206.787 217.473,206.787 246.154 M251.942 246.354 C 251.942 274.705,251.990 286.363,252.048 272.259 C 252.106 258.155,252.106 234.958,252.048 220.710 C 251.990 206.463,251.942 218.002,251.942 246.354 M103.996 212.487 C 109.216 212.550,117.757 212.550,122.977 212.487 C 128.197 212.424,123.926 212.372,113.487 212.372 C 103.047 212.372,98.776 212.424,103.996 212.487 M90.429 214.985 C 90.429 216.194,90.504 216.688,90.596 216.084 C 90.687 215.480,90.687 214.491,90.596 213.886 C 90.504 213.282,90.429 213.776,90.429 214.985 M90.472 299.469 C 90.500 301.211,90.668 301.878,91.109 301.997 C 91.527 302.110,91.565 302.056,91.233 301.820 C 90.971 301.634,90.685 300.496,90.596 299.292 L 90.435 297.103 90.472 299.469 M310.157 299.767 C 310.119 300.828,309.875 301.719,309.590 301.833 C 309.199 301.991,309.202 302.042,309.603 302.066 C 310.315 302.110,310.570 301.251,310.384 299.443 C 310.230 297.953,310.222 297.964,310.157 299.767 M135.111 300.566 C 135.086 301.152,134.840 301.722,134.565 301.833 C 134.174 301.991,134.177 302.042,134.578 302.066 C 135.212 302.105,135.594 301.186,135.345 300.223 C 135.219 299.736,135.143 299.848,135.111 300.566 M265.335 300.676 C 265.335 301.212,265.482 301.742,265.662 301.853 C 265.842 301.965,265.911 301.526,265.816 300.878 C 265.607 299.450,265.335 299.336,265.335 300.676 M356.923 339.341 C 356.256 340.007,356.324 340.859,357.043 340.859 C 357.416 340.859,357.642 340.482,357.642 339.860 C 357.642 338.721,357.585 338.679,356.923 339.341 M354.575 344.509 C 354.437 345.198,354.021 345.840,353.649 345.937 C 353.278 346.034,352.672 346.800,352.302 347.638 C 351.932 348.477,351.275 349.255,350.842 349.368 C 350.408 349.482,349.929 349.906,349.777 350.312 C 349.406 351.298,348.431 352.020,347.447 352.035 C 347.005 352.042,346.466 352.443,346.249 352.925 C 346.032 353.407,345.343 353.936,344.717 354.099 C 344.092 354.263,343.360 354.698,343.091 355.067 C 342.748 355.535,341.650 355.836,339.432 356.068 C 337.690 356.251,336.246 356.410,336.225 356.422 C 336.204 356.434,335.772 356.803,335.265 357.243 C 334.347 358.039,333.770 358.042,199.785 358.042 L 65.227 358.042 64.572 357.043 C 63.988 356.151,63.646 356.044,61.379 356.044 C 57.866 356.044,56.452 355.704,56.217 354.802 C 56.094 354.334,55.662 354.044,55.082 354.040 C 54.567 354.037,53.741 353.927,53.247 353.794 C 52.483 353.589,52.348 353.710,52.348 354.594 C 52.348 355.490,52.559 355.669,53.868 355.878 C 54.890 356.041,55.512 356.401,55.766 356.976 C 56.042 357.601,56.674 357.919,58.113 358.157 C 59.197 358.337,60.306 358.789,60.579 359.162 C 61.337 360.200,338.651 360.215,339.410 359.178 C 339.681 358.807,340.766 358.391,341.875 358.232 C 343.053 358.064,344.261 357.583,344.855 357.048 C 345.405 356.552,346.349 356.030,346.953 355.888 C 347.557 355.746,348.052 355.358,348.052 355.027 C 348.052 354.697,348.501 354.255,349.051 354.046 C 349.663 353.813,350.050 353.352,350.050 352.857 C 350.050 352.344,350.313 352.048,350.769 352.048 C 351.673 352.048,352.448 351.295,352.448 350.416 C 352.448 350.046,352.807 349.650,353.247 349.535 C 353.756 349.401,354.048 348.986,354.053 348.389 C 354.057 347.874,354.506 347.029,355.052 346.512 C 355.663 345.932,356.044 345.126,356.044 344.414 C 356.044 342.797,354.902 342.871,354.575 344.509 M50.192 352.379 C 49.847 352.938,51.039 353.774,51.776 353.491 C 52.127 353.356,52.340 353.022,52.250 352.747 C 52.048 352.134,50.513 351.860,50.192 352.379 " stroke="none" fill="#c3c3c3" fill-rule="evenodd"></path><path id="path4" d="M283.117 99.849 C 275.551 101.865,269.331 109.900,269.331 117.656 C 269.331 119.382,269.319 119.396,266.434 121.114 C 264.840 122.062,262.512 123.521,261.261 124.356 C 260.009 125.191,258.866 125.874,258.721 125.874 C 258.576 125.874,257.658 126.414,256.681 127.073 C 255.704 127.732,254.805 128.272,254.683 128.272 C 254.561 128.272,253.662 128.811,252.685 129.471 C 251.708 130.130,250.835 130.669,250.745 130.669 C 250.654 130.669,248.932 131.658,246.918 132.867 C 243.065 135.178,242.376 135.411,242.032 134.515 C 241.707 133.668,238.394 131.577,236.271 130.878 C 235.223 130.534,233.992 130.062,233.536 129.831 C 229.438 127.752,220.111 130.969,215.450 136.069 C 213.453 138.254,213.359 138.305,212.092 137.885 C 211.376 137.647,206.563 136.281,201.399 134.849 C 188.501 131.273,189.508 131.781,188.326 128.255 C 181.799 108.795,153.047 113.830,153.047 134.432 L 153.047 136.586 149.351 138.824 C 147.318 140.055,143.946 142.150,141.858 143.479 C 139.770 144.808,137.747 145.997,137.363 146.121 C 136.978 146.245,136.663 146.506,136.663 146.700 C 136.663 146.894,136.499 147.053,136.298 147.053 C 136.097 147.053,133.510 148.581,130.550 150.450 C 124.878 154.029,123.651 154.413,122.202 153.062 C 121.740 152.631,120.354 152.064,119.122 151.800 C 117.891 151.537,116.712 151.171,116.503 150.986 C 115.751 150.319,110.271 150.632,107.355 151.509 C 89.698 156.821,90.670 181.706,108.694 185.795 C 112.461 186.650,118.989 185.735,121.210 184.041 C 121.949 183.478,122.716 183.009,122.915 183.000 C 124.303 182.935,128.533 177.681,129.497 174.825 C 129.794 173.946,130.224 172.974,130.453 172.665 C 130.682 172.357,130.869 170.135,130.869 167.726 L 130.869 163.349 132.531 162.197 C 134.102 161.109,135.545 160.254,139.261 158.213 C 140.140 157.730,140.949 157.223,141.059 157.086 C 141.516 156.515,146.221 153.846,146.771 153.846 C 147.099 153.846,147.467 153.585,147.590 153.265 C 147.713 152.945,148.557 152.271,149.465 151.766 C 150.374 151.262,151.661 150.548,152.325 150.179 C 152.989 149.811,153.917 149.167,154.388 148.749 C 156.435 146.930,158.350 146.882,160.982 148.583 C 165.872 151.744,173.081 152.816,177.023 150.969 C 177.792 150.608,178.835 150.194,179.339 150.049 C 180.730 149.648,184.709 146.178,186.365 143.923 C 187.789 141.983,187.875 141.933,189.122 142.330 C 189.830 142.555,191.399 143.005,192.607 143.329 C 193.816 143.653,195.974 144.249,197.403 144.655 C 198.831 145.060,200.719 145.584,201.598 145.819 C 202.986 146.191,206.559 147.218,209.776 148.170 C 210.570 148.404,210.885 148.927,211.397 150.854 C 211.995 153.108,212.624 154.616,214.008 157.112 C 217.631 163.649,232.540 167.601,237.306 163.288 C 237.701 162.930,238.283 162.637,238.598 162.637 C 239.292 162.637,244.555 157.959,244.555 157.342 C 244.555 157.102,244.837 156.595,245.181 156.215 C 246.389 154.880,247.752 149.942,247.752 146.901 C 247.752 144.104,247.786 144.008,249.023 143.243 C 252.260 141.243,259.138 137.239,262.085 135.639 C 262.920 135.185,264.128 134.457,264.769 134.021 C 265.410 133.585,266.384 133.009,266.933 132.743 C 268.846 131.814,271.486 130.252,272.136 129.663 C 273.020 128.863,273.972 128.918,274.603 129.805 C 275.428 130.966,279.343 133.394,281.755 134.242 C 295.664 139.131,309.069 126.302,304.851 112.138 C 302.162 103.111,292.142 97.445,283.117 99.849 M265.589 162.094 C 265.257 164.516,265.351 299.133,265.686 300.699 L 265.942 301.898 287.117 302.009 C 310.969 302.133,310.114 302.194,310.030 300.392 C 309.977 299.241,309.953 299.216,309.807 300.161 L 309.645 301.221 304.772 301.473 C 298.012 301.823,266.675 301.573,266.267 301.166 C 265.846 300.745,265.615 167.890,266.028 163.836 L 266.334 160.839 287.894 160.839 L 309.454 160.839 309.732 161.838 C 309.989 162.760,310.013 162.737,310.050 161.538 L 310.090 160.240 287.966 160.240 L 265.843 160.240 265.589 162.094 M310.285 230.969 C 310.285 268.002,310.332 283.152,310.390 264.635 C 310.447 246.119,310.447 215.819,310.390 197.303 C 310.332 178.786,310.285 193.936,310.285 230.969 M149.321 177.686 C 148.661 178.345,149.021 301.601,149.683 301.855 C 150.506 302.171,191.729 302.162,192.908 301.846 L 193.809 301.604 193.708 239.613 L 193.606 177.622 171.598 177.519 C 159.494 177.462,149.469 177.537,149.321 177.686 M193.308 239.539 C 193.378 281.928,193.280 300.786,192.988 301.078 C 192.515 301.551,158.864 301.844,152.947 301.426 L 149.451 301.179 149.451 239.697 L 149.451 178.215 171.329 178.318 L 193.207 178.422 193.308 239.539 M207.263 190.872 C 206.604 191.531,206.963 301.601,207.625 301.855 C 208.575 302.220,250.671 302.135,251.250 301.768 C 251.649 301.515,251.730 290.122,251.650 246.129 L 251.548 190.809 229.540 190.706 C 217.436 190.649,207.411 190.724,207.263 190.872 M251.250 246.200 L 251.351 301.191 248.453 301.416 C 244.093 301.755,208.467 301.541,207.892 301.172 C 207.174 300.712,207.158 192.203,207.876 191.485 C 208.244 191.117,213.445 191.027,229.754 191.105 L 251.149 191.209 251.250 246.200 M90.518 217.083 C 89.936 226.780,90.456 301.294,91.109 301.707 C 91.912 302.214,133.862 302.214,134.665 301.707 C 135.289 301.313,135.852 218.413,135.260 214.286 L 135.016 212.587 112.902 212.587 L 90.788 212.587 90.518 217.083 M134.684 214.035 C 135.174 215.324,135.026 300.672,134.533 301.165 C 134.197 301.500,99.388 301.699,94.006 301.396 L 91.109 301.233 91.109 257.376 C 91.109 233.255,91.229 213.400,91.375 213.253 C 91.522 213.107,101.237 212.987,112.964 212.987 L 134.286 212.987 134.684 214.035 " stroke="none" fill="#8b8b8b" fill-rule="evenodd"></path></g></svg>